<?xml version="1.0" encoding="utf-8"?>
<!-- Generator: Adobe Illustrator 25.2.3, SVG Export Plug-In . SVG Version: 6.00 Build 0)  -->
<svg version="1.1" id="Layer_1" xmlns="http://www.w3.org/2000/svg" xmlns:xlink="http://www.w3.org/1999/xlink" x="0px" y="0px"
	 viewBox="0 0 700 500" style="enable-background:new 0 0 700 500;" xml:space="preserve">
<style type="text/css">
	.st0{fill:#96D3DC;}
	.st1{fill:#F6F5F5;}
	.st2{fill:#E4E4E4;}
	.st3{fill:#FFFFFF;}
	.st4{fill:#55939C;}
	.st5{fill:#EE6F57;}
	.st6{fill:#EC785E;}
	.st7{fill:#F9B384;}
	.st8{fill:#367A7F;}
	.st9{fill:#E28B6D;}
	.st10{fill:#102048;}
	.st11{opacity:0.6;}
	.st12{opacity:0.3;}
	.st13{fill:#1F3C88;}
	.st14{fill:#6F3428;}
	.st15{fill:#EDCB6E;}
	.st16{fill:#FBC343;}
	.st17{opacity:0.4;}
	.st18{fill:#FC8879;}
	.st19{fill:#FADDCC;}
</style>
<g>
	<path class="st0" d="M572.1,499.73H335.5c-7.71,0-13.96-6.25-13.96-13.96V150.84c0-7.71,6.25-13.96,13.96-13.96h236.6
		c7.71,0,13.96,6.25,13.96,13.96v334.93C586.06,493.48,579.81,499.73,572.1,499.73z"/>
</g>
<g>
	<g>
		<rect x="345.45" y="151.49" class="st1" width="217.72" height="316.27"/>
	</g>
	<g>
		<path class="st2" d="M563.17,151.5c0.07,123.33,4.05,272.07-9.8,305c-61.02,5.94-132.46,7.85-207.92,8.21l28.68-312.25
			L563.17,151.5z"/>
	</g>
	<g>
		<path class="st3" d="M543.61,446.53c-95.11,15.22-158.67,16.02-210.22,12.2c6.68-71.12,9.36-189.26,12.05-307.22l114.6,0.25
			l103.72,6.85C565.28,281.04,565.45,394.12,543.61,446.53z"/>
	</g>
</g>
<g>
	
		<rect x="443.81" y="133.43" transform="matrix(0.0235 -0.9997 0.9997 0.0235 251.2302 638.6406)" class="st4" width="17.45" height="114.57"/>
</g>
<g>
	<g>
		
			<rect x="476.34" y="177.14" transform="matrix(0.0235 -0.9997 0.9997 0.0235 240.3044 703.6318)" class="st4" width="7.99" height="103.34"/>
	</g>
	<g>
		
			<rect x="459.39" y="210.71" transform="matrix(0.0235 -0.9997 0.9997 0.0235 206.7384 703.3074)" class="st0" width="7.99" height="70.24"/>
	</g>
</g>
<g>
	<g>
		<path class="st4" d="M395.65,248.55c-0.01,0-0.01,0-0.02,0l-24.46-0.58c-0.2,0-0.4-0.09-0.54-0.24c-0.14-0.15-0.22-0.35-0.21-0.55
			l0.58-24.46c0.01-0.43,0.36-0.76,0.79-0.75l24.46,0.58c0.2,0,0.4,0.09,0.54,0.24c0.14,0.15,0.22,0.35,0.21,0.55l-0.58,24.46
			C396.41,248.22,396.07,248.55,395.65,248.55z M371.98,246.45l22.92,0.54l0.54-22.92l-22.92-0.54L371.98,246.45z"/>
	</g>
	<g>
		<g>
			<path class="st5" d="M375.76,229.18c0.75,2.89,2.15,15,8.21,11.61c1.4-0.78,2.58-2.85,3.63-4.03c1.88-2.13,3.76-4.27,5.64-6.4
				c3.76-4.27,7.52-8.54,11.28-12.81c0.96-1.09-3.29-3.84-4.5-2.47c-3.34,3.8-6.69,7.59-10.03,11.39c-1.67,1.9-3.34,3.8-5.01,5.69
				c-1.16,1.32-3.84,5.56-5.56,5.94c0.94,0.3,1.87,0.6,2.81,0.91c0.66,0.54-0.57-3.3-0.59-3.41c-0.47-1.79-0.93-3.57-1.4-5.36
				C379.84,228.77,375.18,227,375.76,229.18L375.76,229.18z"/>
		</g>
	</g>
</g>
<g>
	<g>
		<g>
			
				<rect x="466.18" y="230.51" transform="matrix(0.0235 -0.9997 0.9997 0.0235 186.1475 736.6855)" class="st4" width="7.99" height="85.1"/>
		</g>
		<g>
			
				<rect x="474.89" y="239.02" transform="matrix(0.0235 -0.9997 0.9997 0.0235 177.0284 762.6083)" class="st0" width="7.99" height="103.34"/>
		</g>
	</g>
	<g>
		<g>
			<path class="st4" d="M394.6,293.01c-0.01,0-0.01,0-0.02,0l-24.46-0.58c-0.43-0.01-0.76-0.36-0.75-0.79l0.58-24.46
				c0-0.2,0.09-0.4,0.24-0.54s0.34-0.22,0.55-0.21l24.46,0.58c0.2,0,0.4,0.09,0.54,0.24s0.22,0.35,0.21,0.55l-0.58,24.46
				C395.36,292.68,395.02,293.01,394.6,293.01z M370.94,290.92l22.92,0.54l0.54-22.92L371.47,268L370.94,290.92z"/>
		</g>
		<g>
			<g>
				<path class="st5" d="M374.69,274.34c0.75,2.89,2.15,15,8.21,11.61c1.4-0.78,2.58-2.85,3.63-4.03c1.88-2.13,3.76-4.27,5.64-6.4
					c3.76-4.27,7.52-8.54,11.28-12.81c0.96-1.09-3.29-3.84-4.5-2.47c-3.34,3.8-6.69,7.59-10.03,11.39c-1.67,1.9-3.34,3.8-5.01,5.69
					c-1.16,1.32-3.84,5.56-5.56,5.94c0.94,0.3,1.87,0.6,2.81,0.91c0.66,0.54-0.57-3.3-0.59-3.41c-0.47-1.79-0.93-3.57-1.4-5.36
					C378.78,273.92,374.12,272.15,374.69,274.34L374.69,274.34z"/>
			</g>
		</g>
	</g>
</g>
<g>
	<g>
		<g>
			
				<rect x="474.25" y="266.07" transform="matrix(0.0235 -0.9997 0.9997 0.0235 149.3627 788.3829)" class="st4" width="7.99" height="103.34"/>
		</g>
		<g>
			
				<rect x="445.29" y="311.37" transform="matrix(0.0235 -0.9997 0.9997 0.0235 104.3481 775.7792)" class="st0" width="7.99" height="46.22"/>
		</g>
	</g>
	<g>
		<g>
			<path class="st4" d="M393.56,337.48c-0.01,0-0.01,0-0.02,0l-24.46-0.58c-0.43-0.01-0.76-0.36-0.75-0.79l0.58-24.46
				c0-0.2,0.09-0.4,0.24-0.54s0.35-0.22,0.55-0.21l24.46,0.58c0.2,0,0.4,0.09,0.54,0.24s0.22,0.35,0.21,0.55l-0.58,24.46
				C394.32,337.15,393.98,337.48,393.56,337.48z M369.89,335.38l22.92,0.54l0.54-22.92l-22.92-0.54L369.89,335.38z"/>
		</g>
		<g>
			<g>
				<path class="st5" d="M373.98,319.12c0.75,2.89,2.15,15,8.21,11.61c1.4-0.78,2.58-2.85,3.63-4.03c1.88-2.13,3.76-4.27,5.64-6.4
					c3.76-4.27,7.52-8.54,11.28-12.81c0.96-1.09-3.29-3.84-4.5-2.47c-3.34,3.8-6.69,7.59-10.03,11.39c-1.67,1.9-3.34,3.8-5.01,5.69
					c-1.16,1.32-3.84,5.56-5.56,5.94c0.94,0.3,1.87,0.6,2.81,0.91c0.66,0.54-0.57-3.3-0.59-3.41c-0.47-1.79-0.93-3.57-1.4-5.36
					C378.06,318.7,373.41,316.93,373.98,319.12L373.98,319.12z"/>
			</g>
		</g>
	</g>
</g>
<g>
	<g>
		<g>
			
				<rect x="473.2" y="310.53" transform="matrix(0.0235 -0.9997 0.9997 0.0235 103.8817 830.7584)" class="st4" width="7.99" height="103.34"/>
		</g>
		<g>
			
				<rect x="461.95" y="338.54" transform="matrix(0.0235 -0.9997 0.9997 0.0235 75.7468 836.2543)" class="st0" width="7.99" height="81.63"/>
		</g>
	</g>
	<g>
		<g>
			<path class="st4" d="M392.51,381.94c-0.01,0-0.01,0-0.02,0l-24.46-0.58c-0.43-0.01-0.76-0.36-0.75-0.79l0.58-24.46
				c0-0.2,0.09-0.4,0.24-0.54s0.34-0.22,0.55-0.21l24.46,0.58c0.43,0.01,0.76,0.36,0.75,0.79l-0.58,24.46c0,0.2-0.09,0.4-0.24,0.54
				C392.9,381.87,392.71,381.94,392.51,381.94z M368.84,379.85l22.92,0.54l0.54-22.92l-22.92-0.54L368.84,379.85z"/>
		</g>
		<g>
			<g>
				<path class="st5" d="M372.94,363.29c0.75,2.89,2.15,15,8.21,11.61c1.4-0.78,2.58-2.85,3.63-4.03c1.88-2.13,3.76-4.27,5.64-6.4
					c3.76-4.27,7.52-8.54,11.28-12.81c0.96-1.09-3.29-3.84-4.5-2.47c-3.34,3.8-6.69,7.59-10.03,11.39c-1.67,1.9-3.34,3.8-5.01,5.69
					c-1.16,1.32-3.84,5.56-5.56,5.94c0.94,0.3,1.87,0.6,2.81,0.91c0.66,0.54-0.57-3.3-0.59-3.41c-0.47-1.79-0.93-3.57-1.4-5.36
					C377.02,362.88,372.37,361.1,372.94,363.29L372.94,363.29z"/>
			</g>
		</g>
	</g>
</g>
<g>
	<g>
		<g>
			
				<rect x="440.99" y="385.11" transform="matrix(0.0235 -0.9997 0.9997 0.0235 29.0427 840.9196)" class="st4" width="7.99" height="40.96"/>
		</g>
		<g>
			<path class="st0" d="M527.5,420.98l-103.31-2.43l-0.19,7.99c39.97,0.94,90.86,2.81,101.25,1.22
				C526.83,425.96,527.68,423.76,527.5,420.98z"/>
		</g>
	</g>
	<g>
		<g>
			<path class="st4" d="M391.81,426.08c-0.01,0-0.01,0-0.02,0l-24.46-0.58c-0.43-0.01-0.76-0.36-0.75-0.79l0.58-24.46
				c0.01-0.42,0.35-0.75,0.77-0.75c0.01,0,0.01,0,0.02,0l24.46,0.58c0.2,0,0.4,0.09,0.54,0.24s0.22,0.35,0.21,0.55l-0.58,24.46
				c0,0.2-0.09,0.4-0.24,0.54C392.2,426,392.01,426.08,391.81,426.08z M368.15,423.98l22.92,0.54l0.54-22.92l-22.92-0.54
				L368.15,423.98z"/>
		</g>
		<g>
			<g>
				<path class="st5" d="M371.91,407.08c0.75,2.89,2.15,15,8.21,11.61c1.4-0.78,2.58-2.85,3.63-4.03c1.88-2.13,3.76-4.27,5.64-6.4
					c3.76-4.27,7.52-8.54,11.28-12.81c0.96-1.09-3.29-3.84-4.5-2.47c-3.34,3.8-6.69,7.59-10.03,11.39c-1.67,1.9-3.34,3.8-5.01,5.69
					c-1.16,1.32-3.84,5.56-5.56,5.94c0.94,0.3,1.87,0.6,2.81,0.91c0.66,0.54-0.57-3.3-0.59-3.41c-0.47-1.79-0.93-3.57-1.4-5.36
					C375.99,406.66,371.34,404.89,371.91,407.08L371.91,407.08z"/>
			</g>
		</g>
	</g>
</g>
<g>
	<g>
		<path class="st6" d="M502.84,139.07v24.41h-98.07v-24.41c0-3.89,1.58-7.41,4.13-9.97c0.32-0.32,0.65-0.62,1-0.89
			c2.43-2.02,5.57-3.23,8.98-3.23c2.56,0,5.01-0.59,7.21-1.64c0.96-0.46,1.86-1.01,2.71-1.63c2.8-2.07,4.95-5.02,6.02-8.53
			c1.09-3.58,3.32-6.58,6.2-8.67c2.77-1.99,6.15-3.14,9.74-3.14h6.12c3.58,0,6.96,1.15,9.74,3.14c2.89,2.08,5.11,5.08,6.2,8.67
			c1.07,3.51,3.21,6.46,6.02,8.53c0.85,0.63,1.76,1.17,2.71,1.63c2.2,1.06,4.65,1.64,7.21,1.64c3.41,0,6.54,1.21,8.98,3.23
			C500.85,130.78,502.84,134.69,502.84,139.07z"/>
	</g>
	<g>
		<polygon class="st2" points="510.8,151.49 510.8,169.64 396.8,169.64 396.8,151.49 404.76,151.49 404.76,163.48 502.84,163.48 
			502.84,151.49 		"/>
	</g>
	<g>
		<ellipse class="st3" cx="453.8" cy="115.98" rx="8.7" ry="8.27"/>
	</g>
</g>
<g>
	<g>
		<g>
			<path class="st7" d="M265.85,230.26c-3.48-0.66-6.73-6.47-7.86-8.7c-0.28-0.55-0.36-1.17-0.25-1.77l1.38-7.34
				c0,0,3.19,0.54,2.95,4.8c-0.03,0.44,0.06,0.88,0.22,1.3l1.22,3.2l3.62-2.8l-1.98-5.6c0,0-2.65,0.73-4.02,0.29
				c-2.81-0.9,0.87-3.09,2.04-3.32c1.17-0.23,3.73-1.17,4.9,0.82c1.17,1.98,1.87,3.15,1.87,3.15s1.28-4.43,0.41-14.34
				c-0.04-0.45,1.08-0.44,1.39-0.12c0.94,0.96,2.44,3.87,2.51,12.71c0,0,0.16-10.31,1.92-11.37c1.46-0.87,2.19,4.17,1.17,12.73
				c0,0,1.9-7.41,3.26-7.42c2.3-0.02,0.03,19.79-5.75,25.69L265.85,230.26z"/>
		</g>
		<g>
			<path class="st7" d="M276.76,227.23c-0.1,0.99-0.22,1.94-0.34,2.87v0.01c-0.41,3.29-0.92,6.22-1.52,8.74
				c-0.03,0.12-0.05,0.24-0.08,0.35c-1.76,7.2-2.07,10.72-8.07,9.78l-6.17-7.02l-0.06-0.07l-0.45-0.51l1.25-3.7l0.16-0.48l0.92-2.69
				l0.11-0.35l1.58-4.63l0.64-1.88L276.76,227.23z"/>
		</g>
	</g>
	<g>
		<g>
			<path class="st8" d="M162.09,483.01l-1.57,4.91c-10.77,3.54-17.06,7.59-17.46,12.32h31.15l2.5-16.44
				C170.4,485.34,165.35,484.27,162.09,483.01z"/>
		</g>
		<g>
			<path class="st7" d="M166,470.8l-3.91,12.21c3.25,1.26,8.31,2.33,14.62,0.79l1.61-10.6L166,470.8z"/>
		</g>
		<g>
			<path class="st7" d="M219.26,482.46l0.91-12.43l-14.63,0.77l-0.8,11.46C210.93,484.24,216.05,483.47,219.26,482.46z"/>
		</g>
		<g>
			<path class="st8" d="M236.86,500.24c-0.4-4.73-5.9-11.21-17.97-12.75l0.37-5.03c-3.2,1-8.32,1.77-14.52-0.2l-1.25,17.98H236.86z"
				/>
		</g>
	</g>
	<g>
		<polygon class="st7" points="207.4,233.45 189.74,233.58 189.74,206.88 206.86,206.88 206.87,208.51 206.95,216.97 207.08,230.56 
					"/>
	</g>
	<g>
		<path class="st9" d="M206.95,218.26c-3.17,3.34-11.45-0.43-14.94-4.11l14.86-4.35L206.95,218.26z"/>
	</g>
	<g>
		<path class="st7" d="M211.05,200.72c-0.01,1.97-0.13,4.04-0.46,6.01c-0.86,5.38-3.14,10.03-8.4,10.18
			c-12.43,0.36-15.97-6.75-18.31-12.56c-2.34-5.82,1.46-19.82,1.46-19.82l16.08-1.59l8.83,7.24
			C210.25,190.17,211.1,195.09,211.05,200.72z"/>
	</g>
	<g>
		<path class="st10" d="M184.38,201.01c0,0,3.55-0.16,4.15-9.31c6.34,2.12,10.97,0.19,14.64-4.03c3.13,4.14,11.9,5.43,14.86-3.04
			c2.14-6.12-3.77-15.23-12.37-9.71c-8.43-4.26-21.21-3.97-24.89,6.48c0,0-12.79,5.9,0.75,18.88
			C181.8,200.53,184.38,201.01,184.38,201.01z"/>
	</g>
	<g>
		<polygon class="st8" points="233.27,329.42 223.51,476.96 200.57,476.96 206.31,333.79 209.82,332.17 		"/>
	</g>
	<g>
		<polygon class="st4" points="173.53,309.23 157.44,476.96 182.43,476.96 206.22,337.64 233.26,329.43 234.46,299.65 
			174.21,298.28 		"/>
	</g>
	<g class="st11">
		<path class="st10" d="M177.12,309.6c13.65,4.9,45.67-0.7,52.32-7.52l-4.72-9.45l-52.67,7L177.12,309.6z"/>
	</g>
	<g>
		<path class="st3" d="M228.21,299.8c-0.44,0.18-0.89,0.38-1.36,0.55c-5.1,2.07-10.92,3.89-17.11,5.09
			c-3.7,0.73-7.55,1.22-11.47,1.41c-5.92,0.3-11.99-0.09-18.01-1.46l7.65-71.33l0.93-8.7c0,0,10.01,12.32,21.05-1.28L228.21,299.8z"
			/>
	</g>
	<g class="st12">
		<path class="st13" d="M198.28,306.85c-5.92,0.3-11.99-0.09-18.01-1.46l7.65-71.33l2.73-3.95
			C197.39,246.52,204.3,282.86,198.28,306.85z"/>
	</g>
	<g>
		<path class="st0" d="M189.75,222.54c7.61,32.3,10.74,65.53-0.47,102.44c-8.31,3.16-17.36,3.13-27.04,0.34l2.4-67.09L108.24,297
			l-3.42-21.14C126.49,255.12,163.97,223.81,189.75,222.54z"/>
	</g>
	<g class="st12">
		<path class="st13" d="M226.86,300.35c-5.1,2.07-10.92,3.89-17.11,5.09c-3.4-19.49-4.15-51.51-1.39-65.96L226.86,300.35z"/>
	</g>
	<g class="st11">
		<path class="st9" d="M274.9,238.85c-0.03,0.12-0.05,0.24-0.08,0.35c-1.76,7.2-2.07,10.72-8.07,9.78l-6.17-7.02l-0.06-0.07
			l0.8-4.21l0.16-0.48l0.92-2.69l0.11-0.35L274.9,238.85z"/>
	</g>
	<g>
		<path class="st0" d="M273.83,245.39c0,0-15.15,32.09-24.13,32.86c-8.71,0.75-12.84-7.7-12.84-7.7l6.16,46.9
			c-7.24,3.39-15.14,5.04-24.31,3.42c-8.14-26.44-11.22-60.64-11.83-98.72c6.59,0.41,19.65,0.97,24.33,3.98
			c8.39,5.39,18.74,24.65,18.74,24.65l12.07-16.43L273.83,245.39z"/>
	</g>
	<g>
		<g>
			<path class="st14" d="M89.17,200.17c0,0,0.92-15.35,2.48-14.63c1.56,0.72,4.7,14.07,4.7,14.07L93,205.02L89.17,200.17z"/>
		</g>
		<g>
			<path class="st6" d="M135.27,477.39l0.45,5.05c0.8,8.92-5.78,16.8-14.7,17.6l-1.3,0.12c-8.92,0.8-16.8-5.78-17.6-14.7l-0.45-5.05
				L135.27,477.39z"/>
		</g>
		<g>
			
				<rect x="90.62" y="233.75" transform="matrix(0.996 -0.0895 0.0895 0.996 -31.4819 11.051)" class="st15" width="33.74" height="245.65"/>
		</g>
		<g class="st12">
			<path class="st14" d="M108.41,445.44l-19.45-216.5l13.98-1.26l19.45,216.5L108.41,445.44z M91.19,230.8l19.08,212.41l9.89-0.89
				l-19.08-212.41L91.19,230.8z"/>
		</g>
		<g>
			<polygon class="st10" points="135.26,477.4 101.67,480.42 100.79,470.56 100.17,463.71 98.27,442.65 131.87,439.64 
				133.76,460.69 134.38,467.54 			"/>
		</g>
		<g>
			
				<rect x="100.4" y="462.19" transform="matrix(0.996 -0.0895 0.0895 0.996 -41.2027 12.3639)" class="st16" width="33.73" height="6.88"/>
		</g>
		<g>
			<path class="st6" d="M79.68,235.75l9.33-37.4c0,0,3.22,1.43,7.13-0.98l17.14,35.37L79.68,235.75z"/>
		</g>
	</g>
	<g>
		<path class="st7" d="M186.24,199.46c-0.15-0.55-2.66-1.31-3.21-1.46c-0.85-0.24-1.79-0.35-2.62,0.02
			c-3.03,1.37-2.63,5.71-1.06,7.99c0.89,1.29,2.19,2.29,3.71,2.72c0.55,0.16,5.77,0.22,5.54-0.62
			C188.6,208.12,186.24,199.48,186.24,199.46z"/>
	</g>
	<g>
		<path class="st7" d="M90.77,286.72c-0.79-2.47-3.38-3.86-5.83-3.01c-3.82,1.32-7.15,3.56-7.67,7.37
			c-0.47,3.47,1.27,14.55,9.01,15.97l-0.63-5.69c0,0,4.74-1.11,5.69-3.16C92.01,296.75,92.06,290.74,90.77,286.72z"/>
	</g>
	<g>
		<path class="st8" d="M234.49,248.62c0.41,2.42,0.75,4.86,1.09,7.29c0.34,2.43,0.62,4.87,0.93,7.31l0.8,7.32
			c0.23,2.45,0.46,4.89,0.61,7.35l-0.4,0.05c-0.42-2.42-0.76-4.86-1.1-7.29l-0.92-7.31c-0.26-2.44-0.56-4.88-0.78-7.33
			c-0.24-2.44-0.46-4.89-0.62-7.34L234.49,248.62z"/>
	</g>
	<g>
		<path class="st8" d="M165.43,248.22c-0.01,2.72-0.07,5.44-0.15,8.16c-0.07,2.72-0.21,5.44-0.31,8.15l-0.45,8.15
			c-0.18,2.71-0.37,5.43-0.63,8.14l-0.4-0.02c-0.01-2.72,0.06-5.44,0.14-8.16l0.32-8.15c0.16-2.72,0.27-5.43,0.46-8.15
			c0.18-2.71,0.37-5.43,0.62-8.14L165.43,248.22z"/>
	</g>
	<g>
		<path class="st10" d="M198.7,199.21c0.22,0.97-0.18,1.88-0.89,2.04c-0.71,0.16-1.46-0.5-1.68-1.47c-0.22-0.97,0.18-1.88,0.89-2.04
			C197.73,197.58,198.48,198.24,198.7,199.21z"/>
	</g>
	<g>
		<path class="st10" d="M208.94,198.01c-0.04,0.99-0.66,1.77-1.39,1.74s-1.28-0.86-1.24-1.85s0.66-1.77,1.39-1.74
			C208.42,196.19,208.98,197.02,208.94,198.01z"/>
	</g>
	<g>
		<path class="st9" d="M203.23,198.82c0.35,0.85,0.3,1.76,0.52,2.46c0.12,0.35,0.28,0.66,0.5,0.85c0.21,0.19,0.54,0.31,0.96,0.47
			c0.44,0.17,0.9,0.47,1.22,0.92c0.34,0.43,0.43,1.19,0.12,1.68c-0.27,0.49-0.67,0.76-1,1.01c-0.35,0.24-0.69,0.49-1.06,0.71
			l-0.26-0.3c0.27-0.33,0.57-0.63,0.85-0.95c0.29-0.3,0.56-0.59,0.66-0.86c0.22-0.48-0.25-0.99-0.92-1.26
			c-0.35-0.16-0.85-0.3-1.25-0.71c-0.39-0.4-0.58-0.89-0.66-1.36c-0.17-0.95,0.02-1.77-0.07-2.56L203.23,198.82z"/>
	</g>
	<g>
		<path class="st10" d="M193.8,196.61c0.15-0.61,0.52-1.19,1.05-1.6c0.52-0.43,1.19-0.66,1.86-0.7c1.35-0.08,2.68,0.69,3.24,1.82
			l-0.31,0.25c-0.89-0.7-1.87-1.08-2.87-1.05s-1.91,0.54-2.6,1.45L193.8,196.61z"/>
	</g>
	<g>
		<path class="st10" d="M204.4,195.35c0.15-0.48,0.42-0.93,0.81-1.3c0.38-0.38,0.91-0.63,1.46-0.72c1.1-0.18,2.29,0.38,2.72,1.36
			l-0.32,0.24c-0.72-0.48-1.51-0.69-2.25-0.59c-0.37,0.05-0.72,0.19-1.07,0.39c-0.34,0.21-0.65,0.51-1,0.82L204.4,195.35z"/>
	</g>
	<g>
		<path class="st3" d="M198.72,208.77c1.79,2.81,4.18,3.11,6.03,0.16L198.72,208.77z"/>
	</g>
	<g class="st17">
		<path class="st18" d="M211.1,200.03c-0.01,1.97-0.18,4.72-0.51,6.69c-1.24-0.4-2.15-1.56-2.15-2.95
			C208.44,202.23,209.63,200.27,211.1,200.03z"/>
	</g>
	<g class="st17">
		<circle class="st18" cx="194.34" cy="205.61" r="3.31"/>
	</g>
	<g>
		<path class="st9" d="M184.07,202.76c-0.65-0.44-1.25-0.93-1.85-1.22c-0.3-0.15-0.57-0.23-0.82-0.21
			c-0.25,0.02-0.53,0.16-0.85,0.39l-0.34-0.22c0.14-0.41,0.43-0.87,0.98-1.05c0.54-0.19,1.08-0.04,1.49,0.17
			c0.82,0.45,1.38,1.11,1.72,1.89L184.07,202.76z"/>
	</g>
	<g class="st11">
		<path class="st14" d="M91.35,298.19l-4.77,14.48l-0.98-11.32C88.56,300.71,90.18,299.53,91.35,298.19z"/>
	</g>
</g>
<rect x="-3178.67" y="-943.6" class="st0" width="86.55" height="86.55"/>
<rect x="-3049.98" y="-943.6" class="st6" width="86.55" height="86.55"/>
<rect x="-2895.26" y="-943.6" class="st15" width="86.55" height="86.55"/>
<rect x="-2779.6" y="-943.6" class="st19" width="86.55" height="86.55"/>
<rect x="-2433" y="-958.91" class="st4" width="86.55" height="86.55"/>
</svg>
