<?xml version="1.0" encoding="utf-8"?>
<!-- Generator: Adobe Illustrator 25.2.3, SVG Export Plug-In . SVG Version: 6.00 Build 0)  -->
<svg version="1.1" id="레이어_1" xmlns="http://www.w3.org/2000/svg" xmlns:xlink="http://www.w3.org/1999/xlink" x="0px"
	 y="0px" viewBox="0 0 700 345.89" style="enable-background:new 0 0 700 345.89;" xml:space="preserve">
<style type="text/css">
	.st0{fill:#EFEFEF;}
	.st1{fill:none;stroke:#D9725A;stroke-width:2;stroke-linecap:round;stroke-linejoin:round;}
	.st2{fill:none;stroke:#D9725A;stroke-width:2;stroke-linecap:round;stroke-linejoin:round;stroke-dasharray:5.963,3.9753;}
	.st3{fill:#E3755C;stroke:#FFFFFF;stroke-linecap:round;stroke-linejoin:round;stroke-miterlimit:10;}
	.st4{fill:#97D4DD;}
	.st5{fill:#323333;}
	.st6{fill:#EE785F;}
	.st7{fill:#EECC6E;}
	.st8{fill:#FBDECE;}
	.st9{fill:#D9725A;stroke:#FFFFFF;stroke-linecap:round;stroke-linejoin:round;stroke-miterlimit:10;}
</style>
<g>
	<path class="st0" d="M680.14,136.58c-2.26-0.47-4.05-4.75-7.47-4.83c-3.42-0.08-4.28,2.02-5.99,3.04
		c-1.71,1.01-3.11,0.62-3.66-3.11c-0.54-3.74-2.88-3.5-8.02-3.97c-5.14-0.47,0.78-4.59-1.56-5.45c-2.33-0.86-4.12,1.25-8.25,0.86
		c-4.12-0.39-3.58-6.77-12.14-8.48c-8.56-1.71-10.12-1.71-14.71-5.21c-4.59-3.5-13.31-0.39-15.72-1.25
		c-2.41-0.86-9.96-5.68-10.27,1.56s-6.23,1.79-7.78,0.86c-1.56-0.93-4.83,1.17-5.84,1.09c-1.01-0.08-4.36-3.35-10.66-2.88
		c-6.3,0.47-6.54,2.18-8.56,5.21c-2.02,3.04-12.61-9.34-14.32-10.82c-1.71-1.48-9.42-3.97-17.36-1.32
		c-7.94,2.65-13.15-1.09-19.38-4.75c-6.23-3.66-6.77-3.19-6.15-6.07c0.62-2.88-10.35-0.93-16.34,2.26s-2.57-4.51-4.9-4.98
		s-6.38,2.49-7.39,1.56c-1.01-0.93-1.63-6.38-5.21-5.14c-3.58,1.25-1.4,2.41-7.39,4.51c-5.99,2.1,4.05,4.75,3.04,6.85
		c-1.01,2.1-9.81,0.7-15.1,0c-5.29-0.7-4.67,1.48-5.99,2.26c-1.32,0.78-6.38-2.33-8.33-6.07c-1.95-3.74-1.32,4.28-1.95,5.21
		c-0.62,0.93-6.77,2.41-14.16-1.48c-7.39-3.89-4.44-0.23-6.85-2.1s2.1-4.36,4.9-4.28s-0.23-8.41-5.84-9.34
		c-5.6-0.93-13.93-2.65-16.58,2.72c-2.65,5.37-3.97,5.06-9.11,1.79c-5.14-3.27-22.18-6.15-34.32-5.06
		c-12.14,1.09-13,1.63-18.76,4.83c-5.76,3.19-9.18,0.54-2.1-3.5c7.08-4.05,23.35-10.58,20.78-18.06c-2.57-7.47-5.6-2.41-8.02-5.29
		c-2.41-2.88-3.19-6.77-12.45-5.37s-6.69,2.72-7.39,3.89c-0.7,1.17-5.29-1.79-7.47-5.84s-6.69-6.54-11.75-4.44
		c-5.06,2.1-3.27,4.75-5.06,7s-4.9,3.66-2.26,4.28c2.65,0.62,3.04,2.1,0.23,2.8s-8.56-1.95-11.75-0.62
		c-3.19,1.32-4.36,4.28-7.55,0.23c-3.19-4.05-4.2,0.7-5.53,0.54c-1.32-0.16-3.58-1.87-3.74,1.01s-2.1,3.58-5.84,2.96
		c-3.74-0.62-8.56-0.93-10.51,0.39c-1.95,1.32-4.44,2.88-8.87,3.5c-4.44,0.62-1.32,6.38,0.31,6.77s7.39,2.1,4.98,3.35
		c-2.41,1.25-6.62-1.48-13-0.23c-6.38,1.25-12.45,1.25-10.58,6.77c1.87,5.53,1.09,7.08,6.07,7.24c4.98,0.16,7.86,10.9,7.24,11.44
		s-2.1-0.86-6.46-5.21c-4.36-4.36-6.23-1.95-8.33-5.29c-2.1-3.35-9.73-2.96-8.48,2.57c1.25,5.53,4.67,5.21,2.65,6.54
		c-2.02,1.32-10.43-3.19-10.43-6.23s-0.78-9.81-3.19-9.96c-2.41-0.16-4.9,1.01-4.12,5.29c0.78,4.28-0.78,7.55,0,8.79
		c0.78,1.25,1.95,2.33,3.27,2.18s-0.86,11.05,1.32,12.84s6.54,3.04,7.39-0.47c0.86-3.5,4.59-0.16,7.16,2.1
		c2.57,2.26,1.32,6.85,5.06,8.79s4.44,4.44,2.57,3.66c-1.87-0.78-10.74-10.58-13.31-9.34c-2.57,1.25-3.19-0.62-4.12,5.84
		c-0.93,6.46-7.63,13.93-12.45,12.53c-4.83-1.4-7.63-3.5-1.09-5.6c6.54-2.1,9.49-6.85,5.99-14.48s-1.17-8.02-2.18-10.43
		c-1.01-2.41-1.87-1.95-1.87-5.6s-4.67-20.16-7.47-20.94c-2.8-0.78-9.26-3.19-10.74,4.83c-1.48,8.02,0.23,9.57-1.4,10.51
		c-1.63,0.93-7.39,1.17-6.15,5.6c1.25,4.44,3.35,8.17,9.34,14.87c5.99,6.69-1.01,7.7-2.41,6.23c-1.4-1.48-6.46-12.06-22.41-12.45
		c-15.95-0.39-5.21,4.12-5.21,5.84s-0.23,4.75-2.18,6.15c-1.95,1.4-2.18-2.26-2.33-5.45c-0.16-3.19-4.51-1.25-5.68,0.93
		s-1.01,2.96-6.62,2.88c-5.6-0.08-5.53,0.39-6.23,1.63c-0.7,1.25-2.26,1.95-2.65-0.39c-0.39-2.33-4.05-2.72-8.33-0.23
		c-4.28,2.49-7.08,1.09-9.65,3.58c-2.57,2.49-9.81,13.7-11.99,4.83s-5.6-9.49-9.88-10.04c-4.28-0.54-2.88,2.8-0.86,7.7
		c2.02,4.9,7.86,14.94,0.93,11.75c-6.93-3.19-7.32-1.25-9.49,0.62c-2.18,1.87-5.91-0.86-6.62,1.79c-0.7,2.65-1.25,5.68,1.48,6.15
		c2.72,0.47,0.86,6.15-0.86,5.6s-3.27,0.31-2.88-5.53c0.39-5.84-10.66-3.27-10.2,0.54c0.47,3.81,0.08,3.74,3.11,4.98
		c3.04,1.25,2.26,4.75-2.96,1.95c-5.21-2.8-7.94-12.84-7.32-15.72s-3.11-3.97-2.49-4.59s4.28,3.5,9.88,4.2
		c5.6,0.7,10.43,0,14.63-5.91c0,0,2.49-2.49,0-5.29C69.04,125.76,42.89,113,42.89,113s-4.31-2.33-8.72,2.49
		c-5.84,6.39-7.16,7.16-6.85,13.08c0.31,5.91,1.87,22.41,2.8,24.9c0.93,2.49,3.11,7.16,8.41,10.27c0,0-12.45,11.52-13.7,15.88
		c-1.25,4.36,1.87,8.09-2.49,8.72c-4.36,0.62,8.72,14.63,16.19,16.19c7.47,1.56,11.21,4.67,11.21,8.72s0.24,9.03-2.68,11.21
		c-2.92,2.18-3.54,8.72-1.99,8.72c1.56,0,10.9-4.98,12.76,2.8s17.43,15.25,17.43,15.25s2.88,2.8,1.01,7.32
		c-1.87,4.51-5.76,9.42-0.7,10.9c0,0,1.17,1.17-2.8,4.12c-3.97,2.96-11.13,7.08-5.91,9.18c5.21,2.1,7.08,3.35,8.02,5.06
		c0.93,1.71,0.93,2.88,5.14-0.7s6.3-3.35,9.73-1.56c3.42,1.79,2.65,0.78,4.9,0.78c2.26,0,7.32,8.33,8.79,8.72
		c1.48,0.39,10.66-0.86,10.66-1.79c0-0.93-4.05-6.85-1.79-9.03c2.26-2.18,12.61-10.04,12.37-12.92c-0.23-2.88,1.09-7.24,3.04-8.25
		c1.95-1.01,2.8-3.42,2.8-6.23c0-2.8-0.78-4.9-3.04-6.15s-6.46-4.67-3.42-10.74c3.04-6.07,5.6-7.55,7.63-8.72s4.05-2.72,6.77,0.93
		c2.72,3.66,3.27,1.56,4.75-0.31c1.48-1.87,6.62-2.33,8.41-2.26c1.79,0.08,2.96,1.63,7.78,1.09s13,4.05,13.15,6.38
		s-1.32,4.98,2.49,5.6c3.81,0.62,6.15,0.08,8.95-0.78c2.8-0.86,9.34,6.07,10.9,6.54c1.56,0.47,5.29-1.01,5.06-3.5
		c-0.23-2.49-1.56-3.66-3.42-4.9s4.28-1.87,6.38-2.65c2.1-0.78,7.39-1.87,5.84-6.07c-1.56-4.2,0.54-3.74,3.89-3.35
		c3.35,0.39,16.58,4.67,24.59-0.23s7.55,5.06,9.26,5.84c1.71,0.78,4.2,2.49,10.04-1.32c5.84-3.81,9.88-0.47,10.9,2.65
		c1.01,3.11,0.86,8.79,5.21,9.57c4.36,0.78,4.51,1.4,5.37,4.2c0.86,2.8,5.68,1.4,7.08,2.02c1.4,0.62,4.51,4.05,4.98,10.58
		c0.47,6.54,4.75-1.17,11.75-2.41c7-1.25,10.82-2.1,11.29-0.86s0.93,2.72,4.59,1.79c3.66-0.93,1.87,2.88,5.6,2.88
		c3.74,0,9.03,0.62,8.41-2.8c-0.62-3.42-4.83-5.91-2.88-6.77c1.95-0.86,4.51,0.7,3.5-4.9c-1.01-5.6-2.26-12.69,1.48-10.66
		c3.74,2.02,4.67,3.42,7.63,3.04c2.96-0.39,5.14,1.17,7.39,5.84c2.26,4.67,5.99,2.96,9.03,1.87c3.04-1.09,8.72,0.31,10.66,2.02
		c1.95,1.71,3.97,2.88,7,2.8c3.04-0.08,1.71,3.5,2.41,4.44c0.7,0.93,13.31-0.16,14.32-1.95c1.01-1.79,1.63-3.27,3.11-1.32
		c1.48,1.95,4.67-1.17,6.62-3.35c1.95-2.18,6.3-0.39,10.9,4.12c4.59,4.51,9.65,0.47,9.65-2.1c0-2.57-0.93-6.46,2.49-7.94
		s-0.7-7.16-2.02-8.17s-0.22-4.98,3.35-5.6s14.63-1.71,17.9,1.32c3.27,3.04,1.87,3.27,7.39,7.08c5.53,3.81,3.19,11.36,4.98,12.45
		c1.79,1.09,3.27,4.12,9.81,3.97c6.54-0.16,3.04,2.26,5.45,3.89c2.41,1.63,4.05,0.31,4.51,2.33c0.47,2.02,0.7,3.19,5.06,3.27
		c4.36,0.08,6.85-3.5,8.33-1.79c1.48,1.71,3.5,4.44,1.4,6.77c-2.1,2.33-1.56,8.02-1.4,11.05c0.16,3.04-2.72-0.47-4.05,0.31
		c-1.32,0.78-4.75,4.36-3.74,8.41c0.71,2.84,1.5,3.36,2.33,3.53l2.53,0.59c8.79,2.13,18.1-8.64,24.25-21.87
		c6.15-13.23,4.67-15.41,2.72-21.32c-1.95-5.91,1.67-3.35,1.69-7c0.02-3.66,0.57-13.93-5.35-17.2s-6.69-4.98-10.97,0.62
		c-4.28,5.6-3.89-3.42-3.89-3.89c0-0.47-8.72-2.96-8.25-5.29c0.47-2.33,5.06-4.36,8.95-13.15c3.89-8.79,4.44-12.37,15.57-14.09
		c11.13-1.71,12.3-0.08,13.7,0.08c1.4,0.16,8.17,3.27,9.88-0.08c1.71-3.35,2.1-5.06,5.91-4.05c3.81,1.01,2.18,3.35,3.89,4.75
		c1.71,1.4,12.92,0.62,13.78-3.19c0.86-3.81-0.47-11.36,3.27-14.79c3.74-3.42,12.45-2.65,15.18,2.41c2.72,5.06,6.15,2.26,7.55-3.35
		c1.4-5.6,6.07-1.25,5.76,1.17c-0.31,2.41,0.08,3.5-4.05,7.16c-4.12,3.66-7.94,6.54-10.2,11.67c-2.26,5.14-4.98,3.74-5.29,5.68
		c-0.31,1.95-3.35,19.3,0.47,22.8s4.44,6.62,4.28,10.27c-0.16,3.66,4.05,7.32,6.38,8.41c2.33,1.09,4.59,1.87,6.62-2.18
		c2.02-4.05,7-10.27,5.99-14.32c-1.01-4.05,1.63-2.8,3.19-2.26c1.56,0.54,4.05-1.79,2.1-5.37c-1.95-3.58-0.86-5.68,1.32-6.3
		c2.18-0.62,1.63-3.66-2.26-7c-3.89-3.35-4.36-4.36-6.07-4.36c-1.71,0,0.62-10.35,7.32-12.92c6.69-2.57,5.91-2.18,7.86-5.29
		c1.95-3.11,9.11,0.08,10.66,3.27c1.56,3.19,2.88,4.98,4.75,2.88c1.87-2.1,2.65-3.58,2.57-6.85c-0.08-3.27,3.27-1.4,3.5-3.19
		s-0.86-5.68,0.7-5.37c1.56,0.31,5.45,2.1,8.64-0.86c3.19-2.96,6.38-3.66,9.57-0.7c3.19,2.96,6.38-2.1,4.28-5.68
		s-5.45-7.32-9.18-8.09c-3.74-0.78-4.75-4.12-0.62-5.91c4.12-1.79,6.46-3.74,3.66-6.62c-2.8-2.88,1.4-10.04,3.89-5.84
		c2.49,4.2-0.23,10.97,6.38,9.26c6.62-1.71,6.85,2.88,9.18,3.74c2.33,0.86,5.99-0.78,6.77,2.02c0.78,2.8,4.2,6.46,7.86,3.81
		c3.66-2.65,2.72-5.91,0.78-7.16c-1.95-1.25-1.63-4.28,1.71-4.36c3.35-0.08,7.39-5.29,5.53-8.09
		C686.91,133.62,682.4,137.04,680.14,136.58z"/>
	<path class="st0" d="M624.73,105.14c5.14-0.31,3.81-1.4,8.72-0.54c4.9,0.86,4.51-8.64,0-8.87c-4.51-0.23-7.39-0.47-11.21,4.67
		C622.24,100.39,619.59,105.45,624.73,105.14z"/>
	<path class="st0" d="M454.34,72.94c2.18-0.21,1.14-5.6,5.71-3.22c4.57,2.39,7.68,1.66,10.48-0.93c2.8-2.59-3.53-2.8-4.88-3.01
		c-1.35-0.21,0.31-2.8-2.7-5.6s-5.91-2.59-7.16,1.14s-2.39,2.49-7.37-1.14c-4.98-3.63-7.89,0-7.89,0v0.21
		c-1.49,4.51-0.53,5.64,1.38,8.95C443.82,72.64,452.16,73.15,454.34,72.94z"/>
	<path class="st0" d="M486.97,71.07c5.14,0.05,10.38,0.73,9.08-3.58c-1.3-4.31-3.84-2.8-8.82-2.8c-4.98,0-6.57-0.75-8.35-1.66
		c0,0-3.27-3.16-2.39,3.11C477.3,71.93,481.84,71.02,486.97,71.07z"/>
	<path class="st0" d="M252.24,21.31c1.71,1.4,5.91,7,8.72,7.63s4.83-3.74,9.18-4.51c4.36-0.78,6.07-2.65,1.56-10.12
		c-4.51-7.47-13.23,2.96-13.23,2.96c-0.39,0.21-0.7,0.31-3.35,0.21C252.48,17.37,250.53,19.91,252.24,21.31z"/>
	<path class="st0" d="M272.43,27.8c-0.41,1.06-3.42-1.71-5.91,1.2c-3.5,4.1,4.46,5.44,6.95,5.49c2.49,0.05,2.08,1.45,7.24,2.7
		s7.67-0.13,7.87-3.01c0.21-2.96-2.81-1.97-3.28-2.65s3.06-7.52-4.98-8.87C272.27,21.31,273.25,25.66,272.43,27.8z"/>
	<path class="st0" d="M296.29,43.57c8.15-0.05,13.54-1.97,11.73-6.59s-3.17-5.4-6.33-4.46c0,0-2.49-0.47-2.91-2.85
		s-4.41-1.19-6.59,4.77S288.15,43.63,296.29,43.57z"/>
	<path class="st0" d="M135.45,109.57c-0.8,1.69,3.32,2.65,7.81,2.83c4.49,0.18,4.18-3.45-0.47-5.91
		C138.15,104.02,135.45,109.57,135.45,109.57z"/>
	<path class="st0" d="M118.95,103.03c0.88,4.41,4.67,4.83,10.48,4.25s5.97-2.7,5.45-4.98s-4.2-3.06-4.2-3.06
		c-2.06-0.75-2.8-5.71-3.01-7.47c-0.21-1.76-0.78-8.3,4.1-11c4.88-2.7,8.66-6.85,17.12-11.88c8.46-5.03,10.33-4.1,14.06-5.55
		c3.74-1.45,13.02-3.89,11.62-7.99c-1.4-4.1-10.95-3.48-12.97-0.52c-2.02,2.96-4.25,4.1-10.58,4c-6.33-0.1-7.47,0.57-10.07,3.37
		c-2.59,2.8-7.89-1.19-8.3,2.08c-0.42,3.27-1.56,2.85-7.06,3.58c-5.5,0.73-3.37,8.66-3.42,10.12c-0.05,1.45-4.88-3.01-4.46,0.78
		c0.42,3.79-0.21,3.84-3.01,6.23s-3.89,10.07-2.02,12.3S118.07,98.62,118.95,103.03z"/>
	<path class="st0" d="M187.18,76.11c0.86-3.11-1.04-4.18-1.04-4.18s-2.62-1.27-3.09,2.39C182.59,77.97,186.32,79.22,187.18,76.11z"
		/>
	<path class="st0" d="M528.07,243.9c0.16-1.09,0.86-1.17,3.27-0.86c2.41,0.31,0.23-2.33-2.26-4.67s-5.29-9.03-5.29-9.03
		s-1.32-5.21-2.96-5.29c-3.15-0.15-3.74,0.08-3.35,3.89c0.39,3.81-0.08,5.29,1.87,9.49c1.95,4.2,0.47,9.57,2.65,11.44
		s1.56,2.1,1.25,5.21c-0.31,3.11,0.86,2.18,5.45,3.89s6.77,1.71,5.84-2.1C533.59,252.07,527.91,244.99,528.07,243.9z"/>
	<path class="st0" d="M483.77,296.33c-1.19,1-0.6,1.45-2.21,3.15c-1.62,1.7-2.89,1.36-4.51,2.72c-1.62,1.36-3.49-0.77-3.66,0
		c-0.17,0.77-0.43,3.66-2.72,1.7c-2.3-1.96-1.87-2.38-3.66-0.85s-5.79,3.06-7.57,3.49s0.43,2.13,1.62,3.06
		c1.19,0.94-1.94,4.03-2.29,4.91c-0.35,0.88,2.03,2.5,2.03,3.77c0,1.28-1.02,3.06-0.17,4.26c0.85,1.19,1.28,2.81-0.17,5.19
		c-1.45,2.38-2.89,2.13-2.21,4.17s4.51,3.06,6.38,1.36c1.87-1.7,4.6,0,5.45-1.53s2.55-5.87,2.04-9.7c-0.51-3.83-2.45-8-4.17-8.77
		s1.28-3.49,4.51-2.89c3.23,0.6,4.94-3.74,6.3-5.36s4.17-1.96,4.43-2.72c0.26-0.77,0.77-2.29,1.16-3.23
		c0.35-0.84,2.32-1.96,2.51-4.64l-2.53-0.59C484.32,293.82,484.72,295.53,483.77,296.33z"/>
</g>
<g>
	<g>
		<path class="st1" d="M71.22,214.87c0,0,1.03-0.51,2.74-1.21"/>
		<path class="st2" d="M77.69,212.27c4.72-1.58,11.25-3.1,16.89-2.04c10.21,1.92,18.72-6.48,27.57-9.26
			c8.85-2.78,19.36-6.24,26.21-2.68c5.13,2.67,9.15-1.42,13.96-1.95c3.82-0.42,9.19,5.86,16.34,6.58
			c7.15,0.72,15.32,3.28,19.74,2.64c4.43-0.63,7.83-5.21,20.09-4.59s14.98-3.35,21.45,0c6.47,3.35,14.98,7.08,31.66,6.58
			c16.68-0.51,9.53,5.68,20.43,4.63c10.89-1.05,19.06-10.82,30.98-6.62c0,0,15.66-6.36,20.09,1.99c4.43,8.34,16,7.44,17.7,15.72
			c1.7,8.28-1.06,9.94,10.21,13.65c19.91,6.55,35.06-2.93,37.79-7.41c2.72-4.48,30.98-12.07,43.57-1.61
			c12.6,10.46,26.21,25.1,30.98,25.44s21.36,0.27,20.62,7.83c-0.6,6.12-4.87,16.01-7.55,21.73"/>
		<path class="st1" d="M495.56,284.7c-0.8,1.67-1.33,2.68-1.33,2.68"/>
	</g>
</g>
<circle class="st3" cx="494.55" cy="284.54" r="4.98"/>
<circle class="st3" cx="350.65" cy="214.36" r="4.71"/>
<circle class="st3" cx="313.89" cy="204.23" r="4.71"/>
<circle class="st3" cx="284.53" cy="210.62" r="4.71"/>
<circle class="st3" cx="237.04" cy="201.04" r="4.71"/>
<circle class="st3" cx="135.35" cy="196.33" r="4.71"/>
<circle class="st3" cx="71.22" cy="214.36" r="4.71"/>
<rect x="79" y="-133.21" class="st4" width="86.55" height="86.55"/>
<rect x="-46.95" y="-133.21" class="st5" width="86.55" height="86.55"/>
<rect x="207.68" y="-133.21" class="st6" width="86.55" height="86.55"/>
<rect x="362.4" y="-133.21" class="st7" width="86.55" height="86.55"/>
<rect x="478.06" y="-133.21" class="st8" width="86.55" height="86.55"/>
<circle class="st9" cx="483.55" cy="252.81" r="4.71"/>
<path id="XMLID_2607_" class="st3" d="M79.36,185.09c-3-2.88-6.32-3.58-11.1-2.33c-6.61,1.72-8.13,8.38-6.74,13.83
	c0.6,2.38,1.72,4.35,2.9,6.44c0.3,0.53,0.6,1.07,0.9,1.61c0.75,1.38,1.64,2.64,2.51,3.86c0.27,0.37,0.53,0.75,0.8,1.13
	c0.53,0.76,1.18,1.81,1.75,2.73c0.22,0.35,0.43,0.69,0.62,0.99c0.06,0.1,0.17,0.15,0.28,0.15c0.06,0,0.12-0.02,0.17-0.05
	c0.01,0,0.01-0.01,0.01-0.01c0.05-0.01,0.1-0.04,0.14-0.07c1.88-1.68,3.61-4.25,4.88-6.13l0.39-0.58c0.39-0.58,0.82-1.18,1.26-1.8
	c2.25-3.15,4.8-6.72,4.85-10.45C83.02,190.58,81.8,187.44,79.36,185.09z M68.13,197.15c-1.28-0.9-2.02-2.13-2.2-3.66
	c-0.19-1.58,0.44-3.35,1.67-4.73c1.16-1.3,2.64-2.03,4.19-2.05c0.02,0,0.04,0,0.06,0c3.15-0.19,5.32,2.93,5.76,5.97
	c0.34,2.3-0.27,4.99-3,5.64C72.88,198.73,70.12,198.54,68.13,197.15z"/>
<path id="XMLID_1_" class="st3" d="M503.46,254.75c-3-2.88-6.32-3.58-11.1-2.33c-6.61,1.72-8.13,8.38-6.74,13.83
	c0.6,2.38,1.72,4.35,2.9,6.44c0.3,0.53,0.6,1.07,0.9,1.61c0.75,1.38,1.64,2.64,2.51,3.86c0.27,0.37,0.53,0.75,0.8,1.13
	c0.53,0.76,1.18,1.81,1.75,2.73c0.22,0.35,0.43,0.69,0.62,0.99c0.06,0.1,0.17,0.15,0.28,0.15c0.06,0,0.12-0.02,0.17-0.05
	c0.01,0,0.01-0.01,0.01-0.01c0.05-0.01,0.1-0.04,0.14-0.07c1.88-1.68,3.61-4.25,4.88-6.13l0.39-0.58c0.39-0.58,0.82-1.18,1.26-1.8
	c2.25-3.15,4.8-6.72,4.85-10.45C507.12,260.24,505.91,257.1,503.46,254.75z M492.23,266.82c-1.28-0.9-2.02-2.13-2.2-3.66
	c-0.19-1.58,0.44-3.35,1.67-4.73c1.16-1.3,2.64-2.03,4.19-2.05c0.02,0,0.04,0,0.06,0c3.15-0.19,5.32,2.93,5.76,5.97
	c0.34,2.3-0.27,4.99-3,5.64C496.98,268.4,494.22,268.21,492.23,266.82z"/>
</svg>
