<?xml version="1.0" encoding="utf-8"?>
<!-- Generator: Adobe Illustrator 25.2.3, SVG Export Plug-In . SVG Version: 6.00 Build 0)  -->
<svg version="1.1" id="레이어_1" xmlns="http://www.w3.org/2000/svg" xmlns:xlink="http://www.w3.org/1999/xlink" x="0px"
	 y="0px" viewBox="0 0 1200 300" style="enable-background:new 0 0 1200 300;" xml:space="preserve">
<style type="text/css">
	.st0{clip-path:url(#SVGID_2_);fill:#97D4DD;}
	.st1{clip-path:url(#SVGID_2_);}
	.st2{clip-path:url(#SVGID_4_);}
	.st3{fill:#FFFBF2;}
	.st4{clip-path:url(#SVGID_6_);fill:#FBDECE;}
	.st5{clip-path:url(#SVGID_2_);fill:#FBDECE;}
	.st6{fill:#EE785F;}
	.st7{fill:#55959D;}
	.st8{fill:none;stroke:#131A3A;stroke-width:0.8689;stroke-linecap:round;stroke-miterlimit:10;}
	.st9{fill:#69B4BE;}
	.st10{fill:#EAB8A1;}
	.st11{fill:none;stroke:#FFFFFF;stroke-width:1.6806;stroke-linecap:round;stroke-linejoin:round;stroke-miterlimit:10;}
	.st12{fill:#EBC5AE;}
	.st13{fill:#EF866A;}
	.st14{fill:#EECC6E;}
	.st15{fill:#DC654D;}
	.st16{fill:#4E848D;}
	.st17{fill:none;stroke:#131A3A;stroke-width:0.8469;stroke-linecap:round;stroke-miterlimit:10;}
	.st18{fill:none;stroke:#131A3A;stroke-width:1.0098;stroke-linecap:round;stroke-miterlimit:10;}
	.st19{fill:none;stroke:#131A3A;stroke-width:1.0749;stroke-linecap:round;stroke-miterlimit:10;}
	.st20{fill:#CB5E44;}
	.st21{fill:none;stroke:#EF7F5A;stroke-width:3.4595;stroke-miterlimit:10;}
	.st22{fill:none;stroke:#EF7F5A;stroke-width:3.4595;stroke-linecap:round;stroke-miterlimit:10;}
	.st23{fill:#EF7F5A;}
	.st24{fill:none;stroke:#EF7F5A;stroke-width:2.8107;stroke-linecap:round;stroke-miterlimit:10;}
	.st25{fill:#FFFFFF;}
	.st26{fill:#EF7F5A;stroke:#EF7F5A;stroke-width:2.0941;stroke-linecap:round;stroke-linejoin:round;stroke-miterlimit:10;}
	.st27{fill:#EF7F5A;stroke:#EF7F5A;stroke-width:2.2751;stroke-linecap:round;stroke-linejoin:round;stroke-miterlimit:10;}
	.st28{fill:none;stroke:#EF7F5A;stroke-width:2.2751;stroke-linecap:round;stroke-linejoin:round;stroke-miterlimit:10;}
	.st29{fill:none;stroke:#131A3A;stroke-width:0.9066;stroke-linecap:round;stroke-miterlimit:10;}
	.st30{fill:none;stroke:#131A3A;stroke-width:1.0522;stroke-linecap:round;stroke-miterlimit:10;}
	.st31{opacity:0.13;fill:#A34C48;}
	.st32{fill:none;stroke:#FFFFFF;stroke-width:1.6806;stroke-miterlimit:10;}
	.st33{fill:none;stroke:#FFFFFF;stroke-width:1.1425;stroke-miterlimit:10;}
	.st34{fill:#EE7B75;}
	.st35{fill:#E8776B;}
	.st36{fill:#B31E23;}
	.st37{fill:#618C9C;}
	.st38{fill:none;stroke:#FFFFFF;stroke-width:1.0451;stroke-miterlimit:10;}
	.st39{fill:#64B0C5;}
	.st40{fill:#EEC86F;}
	.st41{fill:none;stroke:#FFFFFF;stroke-width:1.0633;stroke-miterlimit:10;}
	.st42{fill:#EF8B7B;}
	.st43{clip-path:url(#SVGID_8_);}
	.st44{fill:#F6B79C;}
	.st45{fill:#171C3C;}
	.st46{fill:#1C2349;}
	.st47{fill:#070E29;}
	.st48{fill:#F19589;}
	.st49{fill:#954438;}
	.st50{clip-path:url(#SVGID_10_);}
</style>
<g>
	<defs>
		<rect id="SVGID_1_" y="0" width="1200" height="300"/>
	</defs>
	<clipPath id="SVGID_2_">
		<use xlink:href="#SVGID_1_"  style="overflow:visible;"/>
	</clipPath>
	<rect y="0" class="st0" width="1200" height="300"/>
	<g class="st1">
		<defs>
			<rect id="SVGID_3_" x="0" y="0" width="1200" height="300"/>
		</defs>
		<clipPath id="SVGID_4_">
			<use xlink:href="#SVGID_3_"  style="overflow:visible;"/>
		</clipPath>
		<g class="st2">
			<g>
				<path class="st3" d="M1200,151.43c-9.93-17.05-21.72-37.61-31.64-54.65c-1.77-3.05-3.69-6.23-7.06-8.11
					c-3.51-1.96-7.96-2.15-12.18-2.28c-11.49-0.36-22.99-0.72-34.48-1.08c-11.54-0.36-25.7-2.24-29.54-11.35
					c-1.07-2.53-1.12-5.32-2.38-7.79c-1.87-3.63-5.98-5.86-10.59-7.08c-14.58-0.81-28.98,3.74-43.57,4.68
					c-14.19,0.92-28.41-1.92-41.05-7.28c-26.4-11.2-43.35-33.6-52.8-56.47L600.32,0l-0.26,501.21l383.83,0.74
					c0.82-4.42,2.2-8.77,4.11-12.95c0.79-1.72,1.72-3.46,3.03-4.92c-2.44,0.32-4.79,0.91-6.93,1.92c-6.78,3.2-8.6,9.85-12.37,15.08
					c-1.19,1.66-4.3,0.14-3.1-1.52c4.16-5.77,6.18-12.66,13.66-16.16c4.35-2.04,9.35-2.63,14.34-2.6c2.43-0.6,5.11-0.61,7.67-0.59
					c15.88,0.14,31.76,0.27,47.63,0.41c11.37,0.1,25.25-1.06,29.95-9.73c0.82-1.51,1.27-3.15,2.31-4.56
					c3.91-5.35,13.21-4.73,20.63-3.87c17.4,2.03,35.19,1.72,52.47-0.93c6.54-1,13.18-2.4,18.58-5.65c5.42-3.26,9.13-8.12,12.2-13.08
					c7.21-11.65,12.6-23.73,13.79-36.81L1200,151.43z"/>
			</g>
			<g>
				<path class="st3" d="M992.91,55.31c7.02,2.63,14.16,4.23,21.41,4.95c-15.87-2.37-29.99-10.94-40.28-21.47
					c-11.31-11.58-17.39-25.08-24.62-38.76l-10.95-0.03C948.15,22.87,965.74,45.12,992.91,55.31z"/>
			</g>
		</g>
		<g class="st2">
			<g>
				<path class="st3" d="M0.21-49.81c10.01-16.99,21.24-37.16,31.25-54.15c1.79-3.04,3.73-6.22,7.12-8.09
					c3.54-1.95,8.03-2.15,12.29-2.28c11.6-0.36,23.19-0.72,34.79-1.07c11.65-0.36,25.93-2.23,29.8-11.32
					c1.08-2.52,1.13-5.31,2.41-7.76c1.88-3.62,6.03-5.85,10.68-7.06c14.71-0.81,29.24,3.73,43.96,4.67
					c14.32,0.91,28.66-1.91,41.42-7.26c26.64-11.17,43.76-32.55,53.3-55.35l337.36-0.96l0.27,499.71L217.58,300
					c-0.83-4.41-2.22-8.75-4.15-12.91c-0.79-1.71-1.74-3.45-3.06-4.9c2.46,0.32,4.83,0.9,6.99,1.91c6.84,3.19,8.68,9.82,12.48,15.03
					c1.2,1.65,4.34,0.14,3.13-1.51c-4.19-5.76-6.23-12.62-13.78-16.11c-4.39-2.03-9.43-2.62-14.46-2.6
					c-2.45-0.6-5.15-0.61-7.74-0.59c-16.02,0.14-32.04,0.27-48.06,0.41c-11.47,0.1-25.47-1.06-30.22-9.7
					c-0.82-1.5-1.29-3.14-2.33-4.55c-3.95-5.33-13.33-4.72-20.82-3.85c-17.56,2.03-35.5,1.71-52.94-0.93
					c-6.59-1-13.3-2.4-18.74-5.64c-5.46-3.25-9.21-8.1-12.31-13.04C4.3,229.41,0.73,217.41-0.47,204.37L0.21-49.81z"/>
			</g>
			<g>
				<path class="st3" d="M208.47-145.3c-7.09,2.63-14.29,4.21-21.61,4.93c16.02-2.36,30.26-10.9,40.64-21.41
					c11.41-11.55,17.53-24.03,24.82-37.67l11.05-0.03C253.62-176.66,235.89-155.46,208.47-145.3z"/>
			</g>
		</g>
	</g>
	<g class="st1">
		<defs>
			<path id="SVGID_5_" d="M1200,151.41c-9.93-17.05-21.28-37.6-31.21-54.64c-1.77-3.05-3.69-6.23-7.06-8.11
				c-3.51-1.96-7.96-2.15-12.18-2.28c-11.49-0.36-22.99-0.72-34.48-1.08c-11.54-0.36-25.7-2.24-29.54-11.35
				c-1.07-2.53-1.12-5.32-2.38-7.79c-1.87-3.63-5.98-5.86-10.59-7.08c-14.58-0.81-28.98,3.74-43.57,4.68
				c-14.19,0.92-28.41-1.92-41.05-7.28c-26.4-11.2-43.78-33.6-53.24-56.47L600.76,0l-0.26,501.21l383.83,0.74
				c0.82-4.42,2.2-8.77,4.11-12.95c0.79-1.72,1.72-3.46,3.03-4.92c-2.44,0.32-4.79,0.91-6.93,1.92c-6.78,3.2-8.6,9.85-12.37,15.08
				c-1.19,1.66-4.3,0.14-3.1-1.52c4.16-5.77,6.18-12.66,13.66-16.16c4.35-2.04,9.35-2.63,14.34-2.6c2.43-0.6,5.11-0.61,7.67-0.59
				c15.88,0.14,31.76,0.27,47.63,0.41c11.37,0.1,25.25-1.06,29.95-9.73c0.82-1.51,1.27-3.15,2.31-4.56
				c3.91-5.35,13.21-4.73,20.63-3.87c17.4,2.03,35.19,1.72,52.47-0.93c6.54-1,13.18-2.4,18.58-5.65c5.42-3.26,9.13-8.12,12.2-13.08
				c7.21-11.65,10.75-23.68,11.94-36.76L1200,151.41z"/>
		</defs>
		<clipPath id="SVGID_6_">
			<use xlink:href="#SVGID_5_"  style="overflow:visible;"/>
		</clipPath>
		<path class="st4" d="M998.73,151.95c3.1-6.23,4.12-8.33,7.55-14.31c1.13-1.97,2.36-3.82,4.2-5.21c3.19-2.42,7.14-2.58,10.9-2.52
			c13.09,0.18,39.07,0.19,54.25,0.19v5.33c-15.2,0-41.2-0.01-54.32-0.19c-3-0.04-5.86,0.04-7.75,1.48
			c-1.09,0.83-1.99,2.14-2.86,3.71c-3.01,5.38-3.35,5.94-6.16,11.46c24.21,0.22,48.25,0.67,71.94,1.44l-0.16,5.33
			c-16.11-0.52-32.4-0.89-48.78-1.14l-62.37,150.46l-4.78-2.09l61.54-148.46c-6.97-0.1-13.96-0.17-20.96-0.23l-62.75,151.38
			l-4.78-2.09l61.91-149.33c-49.91-0.35-100.42,0.19-149.84,0.72c-13.37,0.14-26.68,0.29-39.91,0.41c-0.05,0-0.1,0-0.15,0
			c-5.4,0-10.39-2.74-13.39-7.36c-3.03-4.66-3.56-10.51-1.41-15.67c1-2.4,2.07-5.08,3.26-8.02c1.7-4.23,3.6-8.97,5.83-14.27l2.3-5.4
			c1.62-3.76,3.39-7.74,5.35-12.01c17.38-37.7,40.09-37.54,41.06-37.51c5.44,0.08,12.6-0.16,19.53-0.39
			c6.83-0.23,13.89-0.46,19.44-0.4l2.12-0.62c3.7-6.03,7.03-11.58,10.26-16.96c3.39-5.66,6.9-11.51,10.84-17.92
			c4.12-6.69,8.79-14.28,9.65-22.45c0.21-1.99-0.16-2.58-0.33-2.75c-0.44-0.43-1.84-0.46-2.59-0.48l-89.63-2.04
			c-6.51-0.15-8.55-2.98-9.12-5.34c-0.6-2.5,0.54-4.76,1.22-6.12c3.58-7.16,7.85-15.32,11.97-23.21c4.11-7.86,8.35-15.99,11.91-23.1
			l4.62,2.44c-3.58,7.15-7.84,15.3-11.95,23.18c-4.11,7.87-8.36,16.02-11.93,23.13c-0.32,0.65-0.93,1.85-0.79,2.41
			c0.14,0.57,1.51,1.22,4.19,1.28l7.08,0.16c5.85-13.21,13.43-28.56,20.14-42.14c1.8-3.64,3.55-7.18,5.21-10.56l4.64,2.4
			c-1.66,3.39-3.41,6.94-5.21,10.58C853.37-38,846.26-23.6,840.59-10.98l76.89,1.75c1.55,0.04,4.15,0.09,6.05,1.94
			c2.43,2.36,2.05,6,1.92,7.19c-0.53,5.08-2.25,9.79-4.4,14.18c66.07,1.35,133.01,1.22,199.03-0.39l0.12,5.33
			c-36.01,0.88-72.31,1.32-108.58,1.32c-31.22,0-62.42-0.33-93.42-0.98c-1.05,1.81-2.13,3.57-3.18,5.27
			c-1.41,2.29-2.75,4.49-4.06,6.66c66.43,1.37,133.76,1.25,200.15-0.37l0.12,5.33c-36.01,0.88-72.31,1.32-108.58,1.32
			c-31.32,0-64.06-0.23-95.16-0.89l1.48-2.1c-1.63,2.7-3.21,5.33-4.76,7.92c-3.39,5.65-6.89,11.49-10.82,17.88l-0.53,0.86
			l-4.76,1.38l-0.38-0.01c-5.47-0.08-12.64,0.16-19.57,0.39c-6.99,0.23-14.22,0.47-19.81,0.39c0,0,0,0-0.01,0
			c-0.42,0-20.52,0.33-36.25,34.46c-5.84,12.67-10.02,23.07-13.38,31.43c-1.19,2.97-2.27,5.66-3.28,8.08
			c-1.45,3.49-1.09,7.46,0.96,10.61c2.06,3.17,5.36,4.98,9.06,4.98c0.04,0,0.07,0,0.11,0c13.23-0.13,26.54-0.27,39.91-0.41
			L998.73,151.95z"/>
	</g>
	<path class="st5" d="M1199.78,232.51c-7.06-0.2-17.6-0.5-30.37-0.57c-2.42-5.13-4.84-10.22-7.24-15.26
		c-0.65-1.37-1.54-3.24-3.32-4.46c-1.97-1.36-4.27-1.42-5.94-1.46l-1.08-0.03l0.62-0.2c-4.01-12.3-7.43-24.96-10.17-37.61l-5.08,1.1
		c2.66,12.3,5.97,24.6,9.82,36.59l-8.5-0.21c-0.8-0.02-2.47-0.06-2.95-0.6c-0.28-0.32-0.47-1.12-0.62-1.76
		c-1.34-5.75-2.97-12.25-4.55-18.54c-1.57-6.25-3.19-12.71-4.52-18.4l-5.06,1.18c1.34,5.73,2.97,12.22,4.54,18.49
		c1.57,6.27,3.2,12.75,4.53,18.45c0.27,1.15,0.64,2.73,1.8,4.04c1.98,2.22,5.05,2.3,6.7,2.34l14.39,0.36
		c1.08,0.03,2.43,0.06,3.13,0.54c0.63,0.43,1.13,1.49,1.57,2.41c7.88,16.56,16.02,33.68,23.43,50.81c1.58,3.66,2.78,6.7,2.71,9.81
		c-0.02,0.86-0.17,2.04-0.77,2.75c-1.01,1.22-3.36,1.41-5.04,1.45c-39.38,0.87-73.57,0.27-116.85-0.49
		c-6.58-0.12-13.39-0.24-20.51-0.36l-0.09,5.2c7.11,0.12,13.92,0.24,20.5,0.35c28.09,0.49,52.36,0.92,76.7,0.92
		c13.22,0,26.46-0.12,40.35-0.43c2.7-0.06,6.55-0.47,8.92-3.32c1.25-1.5,1.91-3.51,1.97-5.96c0.1-4.49-1.7-8.65-3.14-11.99
		c-4.42-10.22-9.1-20.42-13.82-30.5c11.6,0.1,21.2,0.37,27.78,0.55"/>
	<path class="st5" d="M179.24,217.09c0,0-1.73,3.14-3.28,5.66c-3.39,5.5-6.89,11.19-10.82,17.42l-0.53,0.84l-4.76,1.35l-0.38-0.01
		c-5.47-0.08-12.64,0.15-19.57,0.38c-6.99,0.23-14.22,0.46-19.81,0.38c0,0,0,0-0.01,0c-0.42,0-20.52,0.33-36.25,33.57
		c-5.84,12.34-10.02,22.47-13.38,30.62c-1.19,2.89-2.27,5.51-3.28,7.87c-1.45,3.4-1.09,7.26,0.96,10.34
		c2.06,3.09,5.36,4.85,9.06,4.85c0.04,0,0.07,0,0.11,0c13.23-0.12,26.54-0.26,39.91-0.4c50.84-0.53,102.83-1.07,154.15-0.67
		l-0.68-0.33c2.98-6.15,6.31-12.22,9.88-18.05c1.17-1.9,2.36-3.72,4.2-5.07c3.19-2.36,7.14-2.51,10.9-2.46
		c13.09,0.17,30.39,0.18,45.57,0.18v5.2c-15.2,0-32.52-0.01-45.64-0.18c-3-0.04-5.86,0.04-7.75,1.44c-1.09,0.8-1.94,2.11-2.86,3.61
		c-3.12,5.08-6.02,10.36-8.69,15.7c24.21,0.22,48.25,0.65,71.94,1.4l-0.16,5.19c-16.11-0.51-32.4-0.87-48.78-1.11l-62.37,146.57
		l-4.78-2.03l61.54-144.62c-6.97-0.09-13.96-0.17-20.96-0.22l-62.75,147.47l-4.78-2.03l61.91-145.47
		c-49.91-0.34-100.42,0.19-149.84,0.7c-13.37,0.14-26.68,0.28-39.91,0.4c-0.05,0-0.1,0-0.15,0c-5.4,0-10.39-2.67-13.39-7.17
		c-3.03-4.54-3.56-10.24-1.41-15.26c1-2.34,2.07-4.95,3.26-7.82c1.7-4.12,5.83-13.9,5.83-13.9l2.3-5.26
		c1.62-3.66,3.39-7.54,5.35-11.7c17.38-36.72,40.09-36.57,41.06-36.54c5.44,0.08,12.6-0.15,19.53-0.38
		c6.83-0.22,13.89-0.45,19.44-0.39l2.12-0.6c3.7-5.87,7.03-11.29,10.26-16.53c3.39-5.51,6.9-11.21,10.84-17.45
		c4.12-6.52,8.79-13.91,9.65-21.87c0.21-1.94-0.16-2.52-0.33-2.68c-0.44-0.42-1.84-0.45-2.59-0.47l-89.63-1.98
		c-6.51-0.14-8.55-2.91-9.12-5.2c-0.6-2.43,0.54-4.64,1.22-5.96c3.58-6.97,7.85-14.92,11.97-22.61c4.11-7.66,8.35-15.58,11.91-22.5
		l4.62,2.38c-3.58,6.96-7.84,14.9-11.95,22.58c-4.11,7.67-8.36,15.6-11.93,22.53c-0.32,0.63-0.93,1.8-0.79,2.34
		c0.14,0.56,1.51,1.19,4.19,1.25l7.08,0.16c5.85-12.86,13.43-27.82,20.14-41.05c1.8-3.54,3.55-6.99,5.21-10.29l4.64,2.34
		c-1.66,3.3-3.41,6.76-5.21,10.31c-6.34,12.5-13.45,26.53-19.12,38.83l76.89,1.7c1.55,0.03,4.15,0.09,6.05,1.89
		c2.43,2.3,2.05,5.84,1.92,7.01c-0.53,4.95-2.25,9.53-4.4,13.81L179.24,217.09z"/>
	<path class="st5" d="M189.95,200.22c-1.05,1.77-2.13,3.48-3.18,5.13c-1.41,2.23-2.75,4.37-4.06,6.49"/>
	<g class="st1">
		<path class="st6" d="M118.74,14.47c-10.19,0-18.44,9.06-18.44,20.24s17.4,31.74,18.44,31.74s18.44-20.56,18.44-31.74
			S128.93,14.47,118.74,14.47z M118.93,42.21c-4.74,0-8.58-3.84-8.58-8.58s3.84-8.58,8.58-8.58c4.74,0,8.58,3.84,8.58,8.58
			S123.67,42.21,118.93,42.21z"/>
		<g>
			<g>
				<g>
					<circle class="st7" cx="51.23" cy="101.86" r="16.85"/>
					<g>
						<line class="st8" x1="51.3" y1="102.62" x2="51.3" y2="128.22"/>
						<line class="st8" x1="54.82" y1="107.44" x2="51.34" y2="112.9"/>
						<line class="st8" x1="47.65" y1="104.71" x2="51.13" y2="108.29"/>
					</g>
				</g>
				<g>
					<circle class="st9" cx="28.4" cy="101.86" r="16.85"/>
					<g>
						<line class="st8" x1="28.46" y1="102.62" x2="28.46" y2="128.22"/>
						<line class="st8" x1="31.98" y1="107.44" x2="28.51" y2="112.9"/>
						<line class="st8" x1="24.81" y1="104.71" x2="28.29" y2="108.29"/>
					</g>
				</g>
			</g>
			<g>
				<g>
					<path class="st10" d="M47.57,130.96L89.03,68.6c3.64-5.62,9.56-5.73,13.23-0.24l41.79,62.5L47.57,130.96z"/>
					<g>
						<path class="st11" d="M82.37,76.87c2.2,0.03,2.16,3.12,4.36,3.15c2.2,0.03,2.24-3.06,4.44-3.04c2.2,0.03,2.16,3.12,4.36,3.15
							c2.2,0.03,2.24-3.06,4.44-3.04c2.2,0.03,2.16,3.12,4.36,3.15c2.2,0.03,2.24-3.06,4.45-3.04"/>
					</g>
				</g>
				<g>
					<path class="st12" d="M93.66,130.86l43.26-65.22c3.8-5.86,9.98-5.97,13.82-0.23l43.67,65.32L93.66,130.86z"/>
					<g>
						<path class="st11" d="M132.11,72.21c1.99,0.03,1.94,3.12,3.93,3.15c1.99,0.03,2.03-3.06,4.02-3.04
							c1.99,0.03,1.94,3.12,3.93,3.15c1.99,0.03,2.04-3.06,4.03-3.04c1.99,0.03,1.95,3.12,3.94,3.15c1.99,0.03,2.04-3.06,4.03-3.04"
							/>
					</g>
				</g>
			</g>
			<g>
				<path class="st13" d="M57.53,122.94c-1.54,0-2.98,0.45-4.2,1.21c-2.4-4.43-7.09-7.43-12.48-7.43c-7.84,0-14.19,6.36-14.19,14.19
					h22.91h5.48H65.5C65.5,126.51,61.93,122.94,57.53,122.94z"/>
				<path class="st13" d="M206.28,122.77c-1.54,0-2.98,0.45-4.2,1.21c-2.4-4.43-7.09-7.43-12.48-7.43
					c-7.84,0-14.19,6.36-14.19,14.19h22.91h5.48h10.46C214.25,126.34,210.68,122.77,206.28,122.77z"/>
			</g>
			<circle class="st14" cx="167.47" cy="55.46" r="9.83"/>
		</g>
	</g>
	<g class="st1">
		<g>
			<path class="st15" d="M268.81,276.81c-2.68,0-5.18,0.78-7.31,2.1c-4.18-7.7-12.33-12.92-21.7-12.92
				c-13.63,0-24.68,11.05-24.68,24.68h39.84h9.53h18.19C282.67,283.02,276.46,276.81,268.81,276.81z"/>
			<path class="st13" d="M293.49,276.81c-2.68,0-5.18,0.78-7.31,2.1c-4.18-7.7-12.33-12.92-21.7-12.92
				c-13.63,0-24.68,11.05-24.68,24.68h39.84h9.53h18.19C307.35,283.02,301.14,276.81,293.49,276.81z"/>
			<g>
				<circle class="st16" cx="266.98" cy="264.47" r="16.42"/>
				<g>
					<line class="st17" x1="267.04" y1="265.21" x2="267.04" y2="290.17"/>
					<line class="st17" x1="270.48" y1="269.91" x2="267.09" y2="275.24"/>
					<line class="st17" x1="263.48" y1="267.25" x2="266.87" y2="270.74"/>
				</g>
			</g>
			<g>
				<circle class="st7" cx="240.11" cy="259.53" r="19.58"/>
				<g>
					<line class="st18" x1="240.19" y1="260.42" x2="240.19" y2="290.17"/>
					<line class="st18" x1="244.28" y1="266.02" x2="240.24" y2="272.36"/>
					<line class="st18" x1="235.95" y1="262.84" x2="239.99" y2="267.01"/>
				</g>
			</g>
		</g>
		<g>
			<path class="st15" d="M210.53,286.09c-2.68,0-5.18,0.78-7.31,2.1c-4.18-7.7-12.33-12.92-21.7-12.92
				c-13.63,0-24.68,11.05-24.68,24.68h39.84h9.53h18.19C224.39,292.29,218.18,286.09,210.53,286.09z"/>
			<g>
				<g>
					<path class="st9" d="M163.52,267.57h-10.09c-5.79,0-10.48-4.69-10.48-10.48v0c0-5.79,4.69-10.48,10.48-10.48h10.09
						c5.79,0,10.48,4.69,10.48,10.48v0C174,262.87,169.3,267.57,163.52,267.57z"/>
					<path class="st9" d="M164.78,288.05h-12.63c-7.24,0-13.11-5.87-13.11-13.11v0c0-7.24,5.87-13.11,13.11-13.11h12.63
						c7.24,0,13.11,5.87,13.11,13.11v0C177.9,282.18,172.03,288.05,164.78,288.05z"/>
					<g>
						<line class="st19" x1="158.42" y1="263.23" x2="158.42" y2="298.97"/>
						<line class="st19" x1="162.28" y1="269.96" x2="158.46" y2="277.58"/>
						<line class="st19" x1="154.41" y1="266.15" x2="158.23" y2="271.15"/>
					</g>
				</g>
				<path class="st20" d="M126.54,286.09c2.68,0,5.18,0.78,7.31,2.1c4.18-7.7,12.33-12.92,21.7-12.92
					c13.63,0,24.68,11.05,24.68,24.68H140.4h-9.53h-18.19C112.68,292.29,118.89,286.09,126.54,286.09z"/>
			</g>
			<g>
				<g>
					<path class="st9" d="M218.27,243.28h-10.09c-5.79,0-10.48-4.69-10.48-10.48v0c0-5.79,4.69-10.48,10.48-10.48h10.09
						c5.79,0,10.48,4.69,10.48,10.48v0C228.75,238.59,224.05,243.28,218.27,243.28z"/>
					<path class="st9" d="M219.53,263.77h-12.63c-7.24,0-13.11-5.87-13.11-13.11v0c0-7.24,5.87-13.11,13.11-13.11h12.63
						c7.24,0,13.11,5.87,13.11,13.11v0C232.65,257.9,226.78,263.77,219.53,263.77z"/>
					<g>
						<line class="st19" x1="213.17" y1="238.94" x2="213.17" y2="274.69"/>
						<line class="st19" x1="217.03" y1="245.67" x2="213.21" y2="253.3"/>
						<line class="st19" x1="209.16" y1="241.86" x2="212.98" y2="246.87"/>
					</g>
				</g>
				<g>
					<path class="st13" d="M235.21,286.09c-2.68,0-5.18,0.78-7.31,2.1c-4.18-7.7-12.33-12.92-21.7-12.92
						c-13.63,0-24.68,11.05-24.68,24.68h39.84h9.53h18.19C249.07,292.29,242.86,286.09,235.21,286.09z"/>
					<g>
						<g>
							<circle class="st16" cx="208.7" cy="273.74" r="16.42"/>
							<g>
								<line class="st17" x1="208.76" y1="274.49" x2="208.76" y2="299.44"/>
								<line class="st17" x1="212.2" y1="279.18" x2="208.8" y2="284.51"/>
								<line class="st17" x1="205.2" y1="276.52" x2="208.59" y2="280.02"/>
							</g>
						</g>
						<g>
							<circle class="st7" cx="181.83" cy="268.8" r="19.58"/>
							<g>
								<line class="st18" x1="181.91" y1="269.69" x2="181.91" y2="299.44"/>
								<line class="st18" x1="186" y1="275.29" x2="181.96" y2="281.64"/>
								<line class="st18" x1="177.66" y1="272.12" x2="181.71" y2="276.28"/>
							</g>
						</g>
					</g>
				</g>
			</g>
		</g>
		<path class="st6" d="M175.95,179.78c-10.19,0-18.44,9.06-18.44,20.24s17.4,31.74,18.44,31.74c1.05,0,18.44-20.56,18.44-31.74
			S186.14,179.78,175.95,179.78z M176.14,207.52c-4.74,0-8.58-3.84-8.58-8.58c0-4.74,3.84-8.58,8.58-8.58
			c4.74,0,8.58,3.84,8.58,8.58C184.72,203.68,180.88,207.52,176.14,207.52z"/>
	</g>
	<g class="st1">
		<path class="st6" d="M971.05,6.74c-10.19,0-18.44,9.06-18.44,20.24s17.4,31.74,18.44,31.74c1.05,0,18.44-20.56,18.44-31.74
			S981.24,6.74,971.05,6.74z M971.24,34.48c-4.74,0-8.58-3.84-8.58-8.58s3.84-8.58,8.58-8.58c4.74,0,8.58,3.84,8.58,8.58
			S975.97,34.48,971.24,34.48z"/>
		<g>
			<g>
				<g>
					<line class="st21" x1="920.45" y1="84.64" x2="933.96" y2="124.69"/>
					<line class="st21" x1="908.27" y1="84.36" x2="894.66" y2="124.69"/>
					<line class="st22" x1="881.91" y1="124.32" x2="948.51" y2="124.32"/>
				</g>
				<g>
					<path class="st9" d="M914.31,47.87c-11.13,0-20.14,9.02-20.14,20.14s9.02,20.14,20.14,20.14c11.13,0,20.14-9.02,20.14-20.14
						S925.44,47.87,914.31,47.87z M914.31,78.6c-5.84,0-10.58-4.74-10.58-10.58s4.74-10.58,10.58-10.58
						c5.84,0,10.58,4.74,10.58,10.58S920.15,78.6,914.31,78.6z"/>
					<circle class="st21" cx="914.31" cy="68.02" r="40.89"/>
					<path class="st23" d="M920.29,69.93l35.28-0.89l-0.09-3.46l-35.09,0.89c-0.13-0.51-0.32-1-0.56-1.45l23.99-25.51l-2.52-2.37
						l-23.9,25.42c-0.42-0.24-0.88-0.43-1.35-0.57V27.13h-3.46v34.86c-0.44,0.13-0.86,0.29-1.26,0.51l-23.46-25.82L885.31,39
						l23.55,25.92c-0.32,0.57-0.56,1.19-0.7,1.86l-35.1,0.89l0.09,3.46l35.3-0.89c0.16,0.42,0.36,0.82,0.6,1.19L884.81,97.2
						l2.52,2.37l24.33-25.87c0.3,0.14,0.6,0.26,0.92,0.35v35.54h3.46V74.05c0.29-0.08,0.56-0.18,0.83-0.3l23.88,26.29l2.56-2.33
						l-23.79-26.19C919.85,71.03,920.1,70.5,920.29,69.93z"/>
				</g>
			</g>
			<g>
				<circle class="st7" cx="914.22" cy="25.88" r="5.67"/>
				<circle class="st7" cx="914.22" cy="108.92" r="5.67"/>
				<circle class="st7" cx="941.14" cy="98.24" r="5.67"/>
				<circle class="st7" cx="886.73" cy="98.24" r="5.67"/>
				<circle class="st7" cx="954.74" cy="67.07" r="5.67"/>
				<circle class="st7" cx="874.26" cy="68.49" r="5.67"/>
				<circle class="st7" cx="942.84" cy="38.17" r="5.67"/>
				<circle class="st7" cx="886.44" cy="38.17" r="5.67"/>
			</g>
			<path class="st7" d="M854.15,118.2c1.54,0,2.98,0.45,4.2,1.21c2.4-4.43,7.09-7.43,12.48-7.43c7.84,0,14.19,6.36,14.19,14.19
				h-22.91h-5.48h-10.46C846.18,121.77,849.75,118.2,854.15,118.2z"/>
		</g>
		<g>
			<g>
				<g>
					<line class="st24" x1="988.35" y1="70.61" x2="988.35" y2="81.97"/>
					<polygon class="st7" points="989.62,70.26 996.3,74.41 989.62,78.32 					"/>
				</g>
				<g>
					<path class="st9" d="M963.41,99.81l23.19-17.64c0.99-0.75,2.36-0.75,3.35,0l23.19,17.64H963.41z"/>
					<path class="st25" d="M978.18,99.81l8.42-17.64c0.99-0.75,2.36-0.75,3.35,0l8.34,17.64H978.18z"/>
					<rect x="962.84" y="99.93" class="st26" width="50.19" height="4.6"/>
				</g>
				<rect x="958.74" y="120.42" class="st27" width="59.24" height="4.6"/>
				<line class="st28" x1="965.6" y1="105.22" x2="965.6" y2="120.26"/>
				<line class="st28" x1="1010.03" y1="105.22" x2="1010.03" y2="120.26"/>
			</g>
			<path class="st7" d="M1015.62,118.2c1.54,0,2.98,0.45,4.2,1.21c2.4-4.43,7.09-7.43,12.48-7.43c7.84,0,14.19,6.36,14.19,14.19
				h-22.91h-5.48h-10.46C1007.65,121.77,1011.21,118.2,1015.62,118.2z"/>
		</g>
	</g>
	<g class="st1">
		<g>
			<path class="st16" d="M20.63,218.98c1.54,0,2.98,0.45,4.2,1.21c2.4-4.43,7.09-7.43,12.48-7.43c7.84,0,14.19,6.36,14.19,14.19
				H28.6h-5.48H12.66C12.66,222.54,16.23,218.98,20.63,218.98z"/>
			<path class="st7" d="M39.63,219.74c1.54,0,2.98,0.45,4.2,1.21c2.4-4.43,7.09-7.43,12.48-7.43c7.84,0,14.19,6.36,14.19,14.19H47.6
				h-5.48H31.66C31.66,223.3,35.23,219.74,39.63,219.74z"/>
		</g>
		<g>
			<path class="st16" d="M274.73,131.92c1.54,0,2.98,0.45,4.2,1.21c2.4-4.43,7.09-7.43,12.48-7.43c7.84,0,14.19,6.36,14.19,14.19
				h-22.91h-5.48h-10.46C266.76,135.49,270.32,131.92,274.73,131.92z"/>
			<path class="st16" d="M237.49,131.92c1.54,0,2.98,0.45,4.2,1.21c2.4-4.43,7.09-7.43,12.48-7.43c7.84,0,14.19,6.36,14.19,14.19
				h-22.91h-5.48h-10.46C229.52,135.49,233.09,131.92,237.49,131.92z"/>
			<path class="st7" d="M257.12,136.65c1.54,0,2.98,0.45,4.2,1.21c2.4-4.43,7.09-7.43,12.48-7.43c7.84,0,14.19,6.36,14.19,14.19
				h-22.91h-5.48h-10.46C249.16,140.22,252.72,136.65,257.12,136.65z"/>
		</g>
	</g>
	<g class="st1">
		<g>
			<path class="st6" d="M1130.56,44.64c-10.19,0-18.44,9.06-18.44,20.24s17.4,31.74,18.44,31.74c1.05,0,18.44-20.56,18.44-31.74
				S1140.74,44.64,1130.56,44.64z M1130.74,72.38c-4.74,0-8.58-3.84-8.58-8.58s3.84-8.58,8.58-8.58s8.58,3.84,8.58,8.58
				S1135.48,72.38,1130.74,72.38z"/>
			<path class="st25" d="M1139.11,86.47c4.83-6.79,9.89-15.55,9.89-21.59c0-11.18-8.26-20.24-18.44-20.24
				c-10.19,0-18.44,9.06-18.44,20.24c0,5.84,4.74,14.24,9.43,20.93L1139.11,86.47z M1130.74,72.38c-4.74,0-8.58-3.84-8.58-8.58
				s3.84-8.58,8.58-8.58s8.58,3.84,8.58,8.58S1135.48,72.38,1130.74,72.38z"/>
		</g>
		<g>
			<path class="st7" d="M1091.26,168.64c-0.98,0-1.88,0.28-2.65,0.76c-1.52-2.8-4.48-4.69-7.88-4.69c-4.95,0-8.96,4.01-8.96,8.96
				h14.47h3.46h6.61C1096.29,170.89,1094.04,168.64,1091.26,168.64z"/>
			<g>
				<path class="st13" d="M1093.41,160.92h-1.96c-5.81,0-10.12-5.38-8.85-11.05l6.68-29.77c0.29-1.28,1.42-2.19,2.73-2.19l0,0
					c1.28,0,2.4,0.87,2.71,2.11l7.47,29.61C1103.65,155.36,1099.32,160.92,1093.41,160.92z"/>
				<g>
					<line class="st29" x1="1092.39" y1="142.63" x2="1092.39" y2="172.78"/>
					<line class="st29" x1="1095.64" y1="148.31" x2="1092.43" y2="154.74"/>
					<line class="st29" x1="1089.01" y1="145.09" x2="1092.23" y2="149.31"/>
				</g>
			</g>
			<g>
				<path class="st9" d="M1081.52,159.02h-2.27c-6.74,0-11.74-6.25-10.27-12.82l7.75-34.56c0.33-1.48,1.65-2.54,3.17-2.54h0
					c1.49,0,2.79,1.01,3.15,2.45l8.67,34.37C1093.4,152.57,1088.37,159.02,1081.52,159.02z"/>
				<g>
					<line class="st30" x1="1080.33" y1="137.79" x2="1080.33" y2="172.78"/>
					<line class="st30" x1="1084.11" y1="144.38" x2="1080.38" y2="151.84"/>
					<line class="st30" x1="1076.41" y1="140.65" x2="1080.14" y2="145.54"/>
				</g>
			</g>
		</g>
		<g>
			<rect x="1108.86" y="127.19" class="st12" width="46.4" height="46.57"/>
			<g>
				<polygon class="st31" points="1108.86,127.19 1155.26,173.77 1108.86,173.77 				"/>
				<path class="st32" d="M1137.15,174.52h-10.35v-13.57c0-2.86,2.32-5.18,5.18-5.18l0,0c2.86,0,5.18,2.32,5.18,5.18V174.52z"/>
			</g>
			<g>
				<rect x="1094.32" y="98.04" class="st12" width="14.78" height="75.73"/>
				<rect x="1155.1" y="98.04" class="st12" width="14.78" height="75.73"/>
				<path class="st15" d="M1155.01,98.04h14.78l-6.47-8.96c-0.42-0.59-1.3-0.59-1.73-0.01L1155.01,98.04z"/>
				<path class="st15" d="M1094.32,98.04h14.78l-6.47-8.96c-0.42-0.59-1.3-0.59-1.73-0.01L1094.32,98.04z"/>
			</g>
			<g>
				<line class="st33" x1="1094.27" y1="113.92" x2="1109.28" y2="113.99"/>
				<line class="st33" x1="1094.27" y1="135.49" x2="1109.28" y2="135.55"/>
				<line class="st33" x1="1094.27" y1="158.56" x2="1109.28" y2="158.63"/>
			</g>
			<g>
				<line class="st33" x1="1154.68" y1="113.92" x2="1170.26" y2="113.99"/>
				<line class="st33" x1="1154.68" y1="136.44" x2="1170.26" y2="136.5"/>
				<line class="st33" x1="1154.68" y1="158.56" x2="1170.26" y2="158.63"/>
			</g>
			<g>
				<path class="st15" d="M1155.26,127.19l-23.15-18.81c-0.4-0.33-0.98-0.32-1.37,0.02l-22.05,18.8H1155.26z"/>
				<g>
					<path class="st25" d="M1133.04,127.26h-2.13v-10.67c0-0.59,0.48-1.07,1.07-1.07l0,0c0.59,0,1.07,0.48,1.07,1.07V127.26z"/>
					<path class="st25" d="M1138.78,127.26h-2.13v-8.67c0-0.53,0.43-0.97,0.97-0.97h0.2c0.53,0,0.97,0.43,0.97,0.97V127.26z"/>
					<path class="st25" d="M1127.47,127.26h-2.13v-8.67c0-0.53,0.43-0.97,0.97-0.97h0.2c0.53,0,0.97,0.43,0.97,0.97V127.26z"/>
				</g>
			</g>
		</g>
		<g>
			<g>
				<path class="st13" d="M1176.03,159.68h-1.96c-5.81,0-10.12-5.38-8.85-11.05l6.68-29.77c0.29-1.28,1.42-2.19,2.73-2.19l0,0
					c1.28,0,2.4,0.87,2.71,2.11l7.47,29.61C1186.26,154.13,1181.93,159.68,1176.03,159.68z"/>
				<g>
					<line class="st29" x1="1175" y1="141.39" x2="1175" y2="171.54"/>
					<line class="st29" x1="1178.26" y1="147.07" x2="1175.04" y2="153.5"/>
					<line class="st29" x1="1171.63" y1="143.85" x2="1174.84" y2="148.08"/>
				</g>
			</g>
			<path class="st7" d="M1187.76,169.02c-0.98,0-1.88,0.28-2.65,0.76c-1.52-2.8-4.48-4.69-7.88-4.69c-4.95,0-8.96,4.01-8.96,8.96
				h14.47h3.46h6.6C1192.79,171.27,1190.54,169.02,1187.76,169.02z"/>
		</g>
	</g>
	<g class="st1">
		<g>
			<path class="st16" d="M972.94,295.5c0.79,0,1.52,0.23,2.15,0.62c1.23-2.26,3.62-3.8,6.38-3.8c4.01,0,7.26,3.25,7.26,7.26h-11.71
				h-2.8h-5.35C968.86,297.32,970.69,295.5,972.94,295.5z"/>
			<path class="st7" d="M982.65,295.89c0.79,0,1.52,0.23,2.15,0.62c1.23-2.26,3.62-3.8,6.38-3.8c4.01,0,7.26,3.25,7.26,7.26h-11.71
				h-2.8h-5.35C978.57,297.71,980.4,295.89,982.65,295.89z"/>
		</g>
		<g>
			<path class="st16" d="M1064.76,296.12c-0.79,0-1.52,0.23-2.15,0.62c-1.23-2.26-3.62-3.8-6.38-3.8c-4.01,0-7.26,3.25-7.26,7.26
				h11.71h2.8h5.35C1068.84,297.94,1067.01,296.12,1064.76,296.12z"/>
			<path class="st7" d="M1055.05,296.5c-0.79,0-1.52,0.23-2.15,0.62c-1.23-2.26-3.62-3.8-6.38-3.8c-4.01,0-7.26,3.25-7.26,7.26
				h11.71h2.8h5.35C1059.13,298.33,1057.3,296.5,1055.05,296.5z"/>
		</g>
		<g>
			<g>
				<path class="st34" d="M1028.53,146.05c0,0,1.78,0.36,2.36,0.55c1.64,0.55,3.08,1.33,3.58,2.67l12.12,32.83
					c0.39,1.06,0.11,2.26-0.71,3.04l-5.77,5.47C1040.1,190.62,1027.75,163.63,1028.53,146.05z"/>
				<polygon class="st35" points="1028.53,146.05 1013.32,146.15 1012.8,148.03 1028.71,147.79 				"/>
			</g>
			<path class="st36" d="M1020.26,146.9c0,0,1.59-0.94,1.4-0.5c-0.19,0.44-0.7,1-1.2,1.57L1020.26,146.9z"/>
			<path class="st36" d="M1012.93,148.58c0,0-1.34-0.03-1.22,0.29c0.12,0.32,1.32,0.57,1.32,0.57L1012.93,148.58z"/>
			<g>
				<g>
					<path class="st37" d="M1015.18,185.44c0,0-2.66,38.27,3.21,53.15c5.86,14.89,27.37,35.11,27.37,35.11l11.51-6.23
						c0,0-9.91-20.58-16.23-37.72c-2.34-6.35-5.04-17.61-2.02-23.94c3.9-8.18-0.16-19.68-3.02-21.39
						C1031.49,181.71,1015.18,185.44,1015.18,185.44z"/>
					<path class="st38" d="M1021.15,213.66c0,0,3.69,24.18,29.72,57.04"/>
				</g>
				<g>
					<g>
						<path class="st39" d="M1016.85,185.74c-30.45,44.74-22.87,36.98-18.36,92.47l14.23,0.21c0,0,0.13-31.04,12.46-50.59
							c12.33-19.55,20.75-22.59,13.13-44.44L1016.85,185.74z"/>
					</g>
					<path class="st38" d="M1028.72,184.68c0,0,0.55,4.61-0.74,9.23c-1.29,4.61-20.3,22.89-21.97,36.92
						c-1.66,14.03-0.55,47.44-0.55,47.44"/>
				</g>
				<g>
					<g>
						<path class="st40" d="M1015.48,274.41l3.16,23.06h-30.08v-2.62c0-3.43,2.56-6.32,5.96-6.73l3.87-0.47l-2.61-13.63
							L1015.48,274.41z"/>
						<g>
							<path class="st41" d="M998.13,287.47l3.49,0.19c0.99,0.05,1.8-0.75,1.76-1.74l0,0c-0.03-0.82-0.65-1.5-1.46-1.6l-4.6-0.57"/>
							<path class="st41" d="M997.25,282.42l3.49,0.19c0.99,0.05,1.8-0.75,1.76-1.74l0,0c-0.03-0.82-0.65-1.5-1.46-1.6l-4.48-0.78"
								/>
							<circle class="st42" cx="1011.77" cy="292.45" r="3.63"/>
						</g>
					</g>
					<path class="st42" d="M992.17,300.65h22.86c1.99,0,3.61-1.62,3.61-3.61l0,0h-30.08l0,0
						C988.56,299.03,990.18,300.65,992.17,300.65z"/>
				</g>
				<g>
					<g>
						<path class="st40" d="M1057.57,264.97l13.05,17.7l-24.95,13.61l-1.18-2.17c-1.55-2.84-0.74-6.4,1.9-8.28l2.99-2.14
							l-8.33-10.13L1057.57,264.97z"/>
						<g>
							<path class="st41" d="M1049.38,283.35l3.06-1.67c0.87-0.47,1.14-1.59,0.59-2.41h0c-0.46-0.68-1.34-0.93-2.08-0.59l-4.22,1.93
								"/>
							<path class="st41" d="M1045.98,279.52l3.06-1.67c0.87-0.47,1.14-1.59,0.59-2.41v0c-0.46-0.68-1.34-0.93-2.08-0.59l-4.22,1.68
								"/>
							<circle class="st42" cx="1063.61" cy="280.43" r="3.63"/>
						</g>
					</g>
					<path class="st42" d="M1050.17,297.46l18.96-10.34c1.65-0.9,2.26-2.97,1.36-4.63l0,0l-24.95,13.61v0
						C1046.44,297.75,1048.51,298.36,1050.17,297.46z"/>
				</g>
			</g>
			<g>
				<g>
					<g>
						<path class="st40" d="M1010.35,147.48c2.93-1.25,7.46,0.77,8.82,5.72c2.74,10.01,2.84,16.68,2.84,16.68
							s-20.33-1.61-20.19-2.12C1005.19,155.4,1004.71,150.35,1010.35,147.48z"/>
						<g>
							<defs>
								<path id="SVGID_7_" d="M1010.35,147.48c2.93-1.25,7.46,0.77,8.82,5.72c2.74,10.01,2.84,16.68,2.84,16.68
									s-20.33-1.61-20.19-2.12C1005.19,155.4,1004.71,150.35,1010.35,147.48z"/>
							</defs>
							<clipPath id="SVGID_8_">
								<use xlink:href="#SVGID_7_"  style="overflow:visible;"/>
							</clipPath>
							<g class="st43">
								<g>
									<g>
										<path class="st25" d="M1020.43,168.14c0.01-4.33-2.57-8.49-6.47-10.38c-0.29-0.14-0.77-0.05-0.82,0.34
											c-0.18,1.26-0.36,2.52-0.16,3.79c0.18,1.16,0.74,2.21,1.44,3.13c1.32,1.74,3.09,3.61,5.27,4.16c0.7,0.18,1-0.9,0.3-1.08
											c-1.89-0.48-3.43-2.13-4.59-3.62c-0.6-0.77-1.09-1.64-1.29-2.61c-0.24-1.14-0.05-2.33,0.11-3.47
											c-0.27,0.11-0.55,0.22-0.82,0.34c3.56,1.72,5.93,5.45,5.92,9.41C1019.31,168.86,1020.43,168.86,1020.43,168.14
											L1020.43,168.14z"/>
									</g>
								</g>
								<g>
									<g>
										<path class="st25" d="M1015.43,157.52c0.86,0.1,1.72-0.31,2.33-0.91c0.63-0.62,1-1.45,1.25-2.28
											c0.05-0.17,0.11-0.35,0.14-0.52c0.08-0.4-0.09-0.77-0.48-0.92c-0.48-0.17-1-0.03-1.45,0.17
											c-0.73,0.32-1.34,0.86-1.81,1.49c-0.53,0.71-0.83,1.55-0.9,2.43c-0.02,0.29,0.28,0.57,0.56,0.56
											c0.33-0.01,0.53-0.25,0.56-0.56c0-0.05,0.01-0.11,0.02-0.16c-0.01,0.12,0.01-0.05,0.01-0.06c0.02-0.1,0.04-0.21,0.07-0.31
											c0.02-0.09,0.05-0.19,0.08-0.28c0.02-0.05,0.03-0.1,0.05-0.15c0.01-0.03,0.04-0.11,0.01-0.04
											c0.08-0.19,0.18-0.38,0.3-0.56c0.05-0.08,0.11-0.16,0.16-0.24c0.02-0.02,0.03-0.04,0.05-0.06
											c-0.03,0.04-0.03,0.04-0.01,0.01c0.03-0.04,0.07-0.08,0.1-0.12c0.13-0.15,0.28-0.3,0.43-0.43
											c0.04-0.03,0.08-0.07,0.12-0.1c-0.07,0.06,0.04-0.03,0.06-0.04c0.08-0.06,0.16-0.11,0.24-0.16
											c0.18-0.11,0.35-0.2,0.51-0.25c0.06-0.02,0.12-0.04,0.18-0.05c0.02,0,0.18-0.02,0.1-0.02c0.05,0,0.1,0,0.16,0
											c0.04,0,0.04,0,0.01,0c0.09,0.03,0.07,0.01-0.08-0.05c-0.05-0.08-0.1-0.17-0.14-0.25c-0.01-0.02,0.03-0.11,0-0.05
											c-0.02,0.04-0.03,0.1-0.04,0.15c-0.03,0.1-0.05,0.2-0.08,0.29c-0.06,0.2-0.13,0.41-0.21,0.6
											c-0.04,0.09-0.03,0.08-0.09,0.2c-0.04,0.09-0.09,0.18-0.14,0.27c-0.05,0.1-0.11,0.19-0.17,0.28
											c-0.02,0.03-0.04,0.07-0.07,0.1c0,0-0.1,0.13-0.06,0.08c-0.12,0.15-0.26,0.28-0.4,0.4c-0.07,0.06,0,0-0.04,0.04
											c-0.04,0.03-0.08,0.06-0.12,0.08c-0.08,0.05-0.16,0.1-0.25,0.14c0,0-0.16,0.07-0.07,0.04c-0.03,0.01-0.07,0.03-0.11,0.04
											c-0.1,0.03-0.2,0.06-0.3,0.08c-0.02,0-0.14,0.02-0.04,0.01c-0.05,0.01-0.09,0.01-0.14,0.01c-0.1,0-0.21,0-0.31-0.01
											c-0.29-0.03-0.57,0.28-0.56,0.56C1014.88,157.29,1015.12,157.48,1015.43,157.52L1015.43,157.52z"/>
									</g>
								</g>
								<g>
									<g>
										<path class="st25" d="M1013.37,148.65c0.16,1.94-0.35,3.86-1.41,5.5c-0.51,0.79-1.15,1.5-1.88,2.09
											c-0.37,0.3-0.78,0.57-1.21,0.79c-0.4,0.21-1.17,0.65-1.63,0.47c0.11,0.09,0.22,0.17,0.34,0.26
											c-0.25-0.33-0.23-0.99-0.22-1.38c0.01-0.49,0.1-0.97,0.24-1.44c0.28-0.92,0.78-1.76,1.41-2.49
											c1.17-1.35,2.85-2.79,4.67-3.06c0.71-0.11,0.41-1.19-0.3-1.08c-1.84,0.27-3.54,1.64-4.8,2.95
											c-1.33,1.39-2.3,3.17-2.34,5.12c-0.02,0.76,0,2.17,0.99,2.28c0.89,0.1,1.9-0.45,2.63-0.9c1.43-0.88,2.62-2.16,3.43-3.64
											c0.91-1.66,1.36-3.58,1.21-5.47C1014.43,147.93,1013.31,147.93,1013.37,148.65L1013.37,148.65z"/>
									</g>
								</g>
								<g>
									<g>
										<path class="st25" d="M1011.19,163.37c0.13-1.63-0.77-3.27-2.19-4.07c-0.27-0.15-0.61-0.06-0.77,0.2
											c-0.54,0.89-0.59,1.99-0.16,2.94c0.38,0.83,1.18,1.46,2.05,1.68c0.29,0.07,0.61-0.09,0.69-0.39
											c0.08-0.29-0.1-0.62-0.39-0.69c-0.09-0.02-0.18-0.05-0.27-0.08c-0.03-0.01-0.08-0.03-0.02-0.01
											c-0.04-0.02-0.08-0.04-0.13-0.06c-0.07-0.04-0.15-0.08-0.22-0.12c-0.04-0.02-0.08-0.05-0.11-0.08
											c-0.08-0.05,0.05,0.05-0.02-0.01c-0.14-0.11-0.26-0.24-0.37-0.37c0.05,0.06-0.01-0.02-0.03-0.04
											c-0.02-0.03-0.04-0.06-0.06-0.09c-0.05-0.08-0.09-0.16-0.13-0.24c0-0.01-0.04-0.1-0.03-0.06c0.02,0.04-0.03-0.09-0.03-0.1
											c-0.03-0.09-0.05-0.18-0.07-0.27c0-0.02-0.02-0.14-0.01-0.06c-0.01-0.04-0.01-0.08-0.01-0.12c-0.01-0.1-0.01-0.2,0-0.31
											c0-0.04,0.01-0.08,0.01-0.12c0.02-0.19-0.01,0.04,0.01-0.06c0.02-0.09,0.04-0.18,0.06-0.27c0.06-0.21,0.1-0.28,0.22-0.48
											c-0.26,0.07-0.51,0.13-0.77,0.2c0.15,0.08,0.29,0.17,0.42,0.27c-0.06-0.05,0.02,0.02,0.04,0.03
											c0.03,0.02,0.06,0.05,0.08,0.07c0.06,0.06,0.12,0.11,0.18,0.17c0.06,0.06,0.11,0.12,0.17,0.19
											c0.03,0.04,0.06,0.07,0.09,0.11c-0.04-0.05,0,0,0.01,0.02c0.1,0.15,0.2,0.29,0.28,0.45c0.04,0.07,0.08,0.15,0.11,0.22
											c0.01,0.03,0.03,0.08,0.01,0.02c0.02,0.04,0.03,0.09,0.05,0.13c0.06,0.16,0.1,0.32,0.14,0.48
											c0.02,0.08,0.03,0.16,0.05,0.25c-0.01-0.06,0-0.02,0,0.02c0,0.05,0.01,0.09,0.01,0.14c0.01,0.18,0.01,0.35-0.01,0.53
											c-0.02,0.3,0.28,0.56,0.56,0.56C1010.96,163.93,1011.17,163.67,1011.19,163.37L1011.19,163.37z"/>
									</g>
								</g>
								<g>
									<g>
										<path class="st25" d="M1006.26,169.28c1.26-2.07,1.83-4.54,1.57-6.96c-0.03-0.29-0.23-0.58-0.56-0.56
											c-1.92,0.13-3.77,0.75-5.36,1.84c-0.59,0.41-0.03,1.38,0.57,0.97c1.42-0.98,3.07-1.57,4.79-1.69
											c-0.19-0.19-0.37-0.37-0.56-0.56c0.24,2.23-0.25,4.47-1.42,6.39C1004.92,169.34,1005.89,169.9,1006.26,169.28
											L1006.26,169.28z"/>
									</g>
								</g>
								<g>
									<g>
										<path class="st25" d="M1014.52,169.93c-0.55-1.52-1.31-2.95-2.3-4.24c-0.31-0.4-0.83-0.33-1.03,0.13
											c-0.52,1.25-1.03,2.55-0.93,3.93c0.02,0.3,0.24,0.56,0.56,0.56c0.29,0,0.58-0.26,0.56-0.56
											c-0.09-1.27,0.41-2.48,0.89-3.63c-0.34,0.04-0.68,0.09-1.03,0.13c0.93,1.2,1.68,2.54,2.19,3.97
											c0.1,0.29,0.38,0.48,0.69,0.39C1014.4,170.55,1014.62,170.22,1014.52,169.93L1014.52,169.93z"/>
									</g>
								</g>
							</g>
						</g>
					</g>
					<path class="st44" d="M978.76,171.74c-0.23-0.39-6.19-1.39-5.61-2.42c0.58-1.03,6.18,0.84,6.05,0.16
						c-0.13-0.68-5.68-2.37-5.54-3.08c0.14-0.71,10.07,2.47,5,0.05c-5.08-2.42-4.66-3.23-1.48-2.34c2.2,0.61,5.28,1.32,6.97,1.7
						c0.56,0.13,1.07-0.31,0.95-0.83c-0.25-1.15-0.55-2.85-0.19-3.32c0.54-0.73,4.9,5.93,4.9,5.93s0,0,0,0.01
						c1.88-0.55,14.05,0.79,22.33,2.63c5.12,1.13,8.89,5.04,7.13,10l-0.34,0.92c-1.81,5.1-9.73,6.54-14.46,3.97
						c-6.99-3.79-15.27-9.09-16.62-10.3c0,0-0.01,0-0.01,0c-0.88,0.09-13.68-1.24-13.17-2.89
						C974.82,171.45,978.99,172.13,978.76,171.74z"/>
				</g>
				<g>
					<path class="st45" d="M1016.97,117.1l-0.29-1.36c-0.31-1.43,0.29-2.9,1.5-3.72l0,0c1.62-1.1,3.43-0.68,4.94,0.91
						c4.23,4.43,17.51,17.13,17.51,17.13c3.49,4.97-0.66,13.64-5.69,17.04c0,0-0.13-1.24-0.21-1.7
						C1033.45,137.78,1016.97,117.1,1016.97,117.1z"/>
					<g>
						<g>
							<path class="st45" d="M1042.26,132.12c-0.19-2.55-1.88-4.9-3.33-6.92c-1.5-2.09-3.2-4.03-5.09-5.77
								c-3.76-3.46-8.19-6.1-13.01-7.78c-1.55-0.54-2.22,1.92-0.68,2.46c4.29,1.5,8.27,3.87,11.65,6.91
								c1.67,1.5,3.21,3.16,4.55,4.96c0.69,0.92,1.33,1.88,1.92,2.87c0.6,0.99,1.34,2.09,1.43,3.27
								C1039.83,133.74,1042.39,133.76,1042.26,132.12L1042.26,132.12z"/>
						</g>
					</g>
					<g>
						<path class="st45" d="M1019.26,139.7c0,0,11.87-10.28,3.58-19.87C1022.84,119.83,1019.45,133.2,1019.26,139.7z"/>
						<g>
							<path class="st44" d="M1021.28,130.5c0.04,0.19,0.23,0.31,0.42,0.26c0.78-0.21,2.71-0.48,3.49,1.51
								c0.79,2.01-2,3.12-3.17,3.49c-0.34,0.11-0.62,0.34-0.78,0.66c-0.51,0.96-1.75,3.13-1.75,5.39c-0.01,4.99,4.21,6.18,4.21,6.18
								s-8.41,6.05-12.68,4.45c0,0,1.02-11.64-0.37-11.81c-2.45-0.3-5.63-1.14-5.95-9.51c-0.3-7.89,5.96-8.86,7.39-8.97
								C1013.3,122.05,1019.16,121.12,1021.28,130.5z"/>
							<path class="st46" d="M1010.73,140.62c0,0,2.85-0.55,5.45-1.63c1.02-0.42-3.03,6.99-3.82,5.91
								C1011.72,144.04,1010.73,140.62,1010.73,140.62z"/>
						</g>
					</g>
					<g>
						<path class="st45" d="M1005.11,127.26c-0.17-3.61,0.95-5.22,2.3-5.88c1.6-1.71,9.15-6.84,14.16-2.86
							c6.8,5.4,1.94,11.55,0,12.24c-0.96,0.96-11.5-3.75-14.64-5.18C1005.91,126.53,1005.11,127.26,1005.11,127.26z"/>
						<g>
							<g>
								<path class="st45" d="M1022.9,129.05c-1.14,0.77-2.37,1.55-3.75,1.79c-1.28,0.23-2.72-0.24-3.79-0.94
									c-1.2-0.78-2.28-1.84-3.36-2.77c-1.07-0.93-2.12-1.89-3.15-2.86c-0.6-0.56-1.5,0.34-0.9,0.9c1.2,1.12,2.41,2.22,3.65,3.29
									c1.16,0.99,2.34,2.2,3.71,2.88c1.22,0.6,2.57,0.98,3.93,0.77c1.58-0.24,3-1.08,4.3-1.96
									C1024.22,129.7,1023.58,128.59,1022.9,129.05L1022.9,129.05z"/>
							</g>
						</g>
					</g>
					<g>
						<path class="st39" d="M1021.63,118.74c0.04-0.01,0.08-0.03,0.11-0.07c0.08-0.09,0.08-0.23-0.01-0.32
							c-1.98-1.83-5.02-1.59-5.14-1.57c-0.12,0.01-0.22,0.12-0.21,0.24c0.01,0.12,0.12,0.22,0.24,0.21c0.03,0,2.96-0.23,4.8,1.46
							C1021.48,118.75,1021.56,118.76,1021.63,118.74z"/>
					</g>
					<g>
						<path class="st15" d="M1024.12,132.36c0,0-1.82-2.19-2.46,1.54"/>
						<path class="st25" d="M1006.4,134.94l4.02-0.11c0,0-0.95,1.96-2.12,1.79C1007.13,136.45,1006.4,134.94,1006.4,134.94z"/>
						<path class="st15" d="M1008.14,132.03l0.27,2.02l-1.06-0.07c-0.2-0.01-0.31-0.23-0.2-0.39L1008.14,132.03z"/>
						<path class="st47" d="M1011.02,129.87c0.37,0.25-0.21-0.89-0.71-1.01s-1,0.12-1.11,0.55
							C1009.21,129.41,1010.14,129.26,1011.02,129.87z"/>
						<path class="st47" d="M1005.56,129.59c0.84-0.37,1.59-0.18,1.59-0.18c-0.07-0.44-0.55-0.73-1.06-0.64
							c-0.19,0.03-0.4,0.21-0.58,0.4C1005.52,129.16,1005.39,129.65,1005.56,129.59z"/>
						<path class="st47" d="M1009.68,132.16c-0.01,0.36-0.16,0.65-0.34,0.64c-0.17-0.01-0.31-0.3-0.29-0.66
							c0.01-0.36,0.16-0.65,0.34-0.64C1009.56,131.51,1009.69,131.8,1009.68,132.16z"/>
						<path class="st47" d="M1007.14,132.05c-0.01,0.34-0.16,0.62-0.32,0.61c-0.17-0.01-0.29-0.29-0.28-0.63
							c0.01-0.34,0.16-0.62,0.32-0.61C1007.02,131.43,1007.15,131.71,1007.14,132.05z"/>
						<path class="st48" d="M1015.7,134.39c0.17,1.29-0.64,2.46-1.81,2.62c-1.17,0.15-2.25-0.77-2.42-2.06
							c-0.17-1.29,0.64-2.46,1.81-2.62C1014.45,132.17,1015.53,133.09,1015.7,134.39z"/>
						<path class="st48" d="M1005.66,136.72c0.51-0.49,0.7-1.21,0.59-2.02c-0.13-0.97-0.67-1.77-1.48-2.02
							C1004.78,132.68,1005.27,135.68,1005.66,136.72z"/>
					</g>
				</g>
				<g>
					<path class="st49" d="M1006.49,172.2l1.35,1.38l0.01,3.27C1007.85,176.85,1006.05,176.19,1006.49,172.2z"/>
					<path class="st34" d="M1010.58,153.69c0,0-3.53,11.49-4.09,18.51c0.33,4.02,0.79,4.32,0.79,4.32s-3.09-1.46-2.33-5.93
						c1.54-17.23,4.71-21.07,4.71-21.07L1010.58,153.69z"/>
					<g>
						<path class="st48" d="M1044.21,158.56c0,0,10.2,9.37,9.12,13.94l-13.76-9.07L1044.21,158.56z"/>
						<g>
							<path class="st40" d="M1010.23,150.99c0.31,0.42-3.02,13.68-2.86,18.39c0.12,3.66,1.27,19.83,1.25,20.08
								c0,0,9.69-0.72,29.71-5.88c-1.4-4.81-5.67-30.45-9.17-35.62c0,0-3.48-0.61-5.18-0.3
								C1023.98,147.67,1019.23,154.15,1010.23,150.99z"/>
							<path class="st25" d="M1023.98,147.67l-3.86-2.92l-7.17,7.04l0.7,3.36c0.3,1.45,2.13,1.92,3.1,0.81L1023.98,147.67z"/>
							<path class="st25" d="M1011.07,147.08l1.88,4.71l-0.83,3.78c-0.13,0.61-1,0.63-1.16,0.02l-1.18-5.52L1011.07,147.08z"/>
							<g>
								<path class="st40" d="M1021.22,151.75c0.88-3.06,5.3-5.31,10-3.25c9.51,4.17,14.75,8.29,14.75,8.29
									s-14.05,14.78-14.36,14.35C1024.13,160.74,1019.91,157.94,1021.22,151.75z"/>
								<g>
									<defs>
										<path id="SVGID_9_" d="M1021.22,151.75c0.88-3.06,5.3-5.31,10-3.25c9.51,4.17,14.75,8.29,14.75,8.29
											s-14.05,14.78-14.36,14.35C1024.13,160.74,1019.91,157.94,1021.22,151.75z"/>
									</defs>
									<clipPath id="SVGID_10_">
										<use xlink:href="#SVGID_9_"  style="overflow:visible;"/>
									</clipPath>
									<g class="st50">
										<g>
											<g>
												<path class="st25" d="M1043.66,156.96c-3.43-2.79-8.26-3.38-12.27-1.5c-0.34,0.16-0.34,0.64-0.11,0.88
													c0.77,0.84,1.56,1.68,2.53,2.3c1.01,0.64,2.18,0.92,3.37,0.99c2.2,0.13,4.91-0.09,6.73-1.44
													c0.57-0.43,0.01-1.4-0.57-0.97c-1.63,1.21-3.98,1.38-5.95,1.3c-1.07-0.04-2.1-0.27-3.01-0.85
													c-0.89-0.56-1.6-1.35-2.31-2.12c-0.04,0.29-0.08,0.59-0.11,0.88c3.51-1.65,7.9-1.12,10.9,1.33
													C1043.43,158.21,1044.22,157.42,1043.66,156.96L1043.66,156.96z"/>
											</g>
										</g>
										<g>
											<g>
												<path class="st25" d="M1032.18,154.17c0.59-0.59,0.86-1.44,0.81-2.27c-0.05-0.91-0.45-1.75-0.95-2.5
													c-0.26-0.38-0.55-0.92-1.09-0.82c-0.49,0.09-0.8,0.59-0.97,1.03c-0.3,0.77-0.3,1.66-0.13,2.46
													c0.19,0.9,0.66,1.75,1.32,2.39c0.52,0.5,1.31-0.29,0.79-0.79c-0.57-0.55-0.93-1.26-1.06-2.04
													c-0.06-0.34-0.06-0.71-0.01-1.05c0.04-0.29,0.12-0.82,0.42-0.95c-0.09,0.03-0.19,0.05-0.28,0.08
													c-0.19,0.02-0.27-0.18-0.1,0.06c0.07,0.09,0.13,0.19,0.19,0.28c0.11,0.17,0.22,0.34,0.31,0.51
													c0.19,0.35,0.33,0.71,0.41,1.09c0.12,0.6-0.01,1.28-0.45,1.72C1030.87,153.88,1031.67,154.68,1032.18,154.17
													L1032.18,154.17z"/>
											</g>
										</g>
										<g>
											<g>
												<path class="st25" d="M1024.1,150.19c2.87,1.97,4.54,6,3.45,9.39c-0.05,0.14-0.17,0.66-0.32,0.72
													c-0.02,0.01-0.3-0.15-0.41-0.22c-0.39-0.24-0.73-0.54-1.03-0.87c-0.65-0.71-1.09-1.59-1.35-2.51
													c-0.31-1.08-0.38-2.2-0.34-3.31c0.03-1.03,0.16-2.06,0.69-2.96c0.37-0.62-0.6-1.19-0.97-0.57
													c-1.01,1.72-1,4.02-0.72,5.93c0.27,1.84,1.09,3.65,2.57,4.83c0.54,0.43,1.51,1.21,2.19,0.67
													c0.67-0.53,0.9-1.69,1.02-2.48c0.26-1.72,0.04-3.5-0.61-5.11c-0.74-1.82-1.96-3.38-3.58-4.49
													C1024.07,148.81,1023.51,149.78,1024.1,150.19L1024.1,150.19z"/>
											</g>
										</g>
										<g>
											<g>
												<path class="st25" d="M1034.14,161.14c-1.18-1.12-3.01-1.52-4.53-0.92c-0.26,0.11-0.5,0.38-0.39,0.69
													c0.33,0.91,1.02,1.62,1.94,1.95c0.92,0.33,2.03,0.14,2.81-0.44c0.24-0.18,0.37-0.49,0.2-0.77
													c-0.14-0.24-0.52-0.38-0.77-0.2c-0.32,0.24-0.57,0.34-0.95,0.42c-0.07,0.01-0.07,0.01-0.19,0.02c-0.09,0-0.19,0-0.28,0
													c-0.04,0-0.08-0.01-0.13-0.01c0.07,0.01-0.05-0.01-0.07-0.01c-0.09-0.02-0.18-0.04-0.27-0.07
													c-0.23-0.07-0.53-0.26-0.72-0.44c-0.14-0.14-0.2-0.21-0.28-0.33c-0.05-0.07-0.09-0.15-0.13-0.23
													c-0.02-0.03-0.03-0.07-0.05-0.1c0.04,0.08-0.03-0.08-0.03-0.08c-0.13,0.23-0.26,0.46-0.39,0.69
													c0.15-0.06,0.31-0.11,0.47-0.15c0.09-0.02,0.17-0.04,0.26-0.05c0.03-0.01,0.09-0.01,0.02-0.01
													c0.04-0.01,0.08-0.01,0.12-0.01c0.17-0.02,0.33-0.02,0.5-0.01c0.09,0,0.18,0.01,0.26,0.02c0.03,0,0.09,0.01,0.03,0
													c0.05,0.01,0.1,0.02,0.14,0.03c0.65,0.13,1.18,0.39,1.63,0.82c0.22,0.21,0.58,0.22,0.79,0
													C1034.36,161.72,1034.36,161.35,1034.14,161.14L1034.14,161.14z"/>
											</g>
										</g>
										<g>
											<g>
												<path class="st25" d="M1035.61,168.7c-0.84-2.34-2.41-4.35-4.5-5.7c-0.27-0.18-0.6-0.04-0.77,0.2
													c-1.11,1.57-1.75,3.42-1.9,5.34c-0.02,0.3,0.28,0.56,0.56,0.56c0.32,0,0.54-0.26,0.56-0.56
													c0.13-1.72,0.75-3.36,1.75-4.77c-0.26,0.07-0.51,0.13-0.77,0.2c1.83,1.19,3.25,2.97,3.99,5.03
													c0.1,0.29,0.38,0.48,0.69,0.39C1035.49,169.32,1035.71,168.99,1035.61,168.7L1035.61,168.7z"/>
											</g>
										</g>
										<g>
											<g>
												<path class="st25" d="M1041.22,162.62c-1.53-0.53-3.13-0.82-4.75-0.86c-0.44-0.01-0.68,0.48-0.48,0.84
													c0.67,1.24,1.39,2.47,2.57,3.29c0.25,0.17,0.62,0.05,0.77-0.2c0.16-0.28,0.05-0.59-0.2-0.77c-1-0.7-1.6-1.84-2.16-2.89
													c-0.16,0.28-0.32,0.56-0.48,0.84c1.52,0.04,3.02,0.32,4.45,0.82c0.29,0.1,0.61-0.11,0.69-0.39
													C1041.69,163,1041.5,162.72,1041.22,162.62L1041.22,162.62z"/>
											</g>
										</g>
									</g>
								</g>
							</g>
							
								<ellipse transform="matrix(0.078 -0.997 0.997 0.078 776.399 1155.3429)" class="st25" cx="1012.85" cy="157.9" rx="1.06" ry="0.33"/>
						</g>
						<path class="st34" d="M1028.56,147.73c0.17,0.34-4.67-1.18-4.8,6.36c-0.13,7.53,6.59,30.66,16.66,29.13
							c0,0-0.23,1.83-2.61,2.37c-3.05,0.69-8.39-0.87-10.91-4.94c-4-6.46-5.84-12.49-7.21-26.48c-0.13-1.28,1.43-6.62,4.29-6.74
							C1023.97,147.43,1028.04,146.7,1028.56,147.73z"/>
						<path class="st44" d="M1023.92,164.52C1023.93,164.52,1023.93,164.52,1023.92,164.52c1.03,1.67,5.9,6.95,11.98,13.03
							c4.12,4.12,12.78,5.06,16.22,0.32l0.63-0.85c3.35-4.6,0.64-9.81-4.33-12.56c-8.03-4.45-18.14-6.81-20.26-6.82
							c0,0,0-0.01,0-0.01s-2.48-8.24-3.27-7.65c-0.51,0.38-0.73,2.23-0.82,3.5c-0.04,0.57-0.7,0.87-1.25,0.57
							c-1.63-0.91-4.66-2.53-6.71-3.9c-1.45-0.97,0.65,3.06,0.82,2.89c0,0-0.65,3.26-0.03,5.12
							C1017.55,160.02,1021.56,162.68,1023.92,164.52z"/>
					</g>
				</g>
			</g>
		</g>
	</g>
</g>
</svg>
